<svg width="22" height="17" viewBox="0 0 22 17" fill="none" xmlns="http://www.w3.org/2000/svg">
<g opacity="0.5">
<path fill-rule="evenodd" clip-rule="evenodd" d="M21.7593 8.08995C22.0802 8.46444 22.0802 9.01704 21.7593 9.39153L15.7593 16.3915C15.3998 16.8109 14.7685 16.8594 14.3492 16.5C13.9299 16.1406 13.8813 15.5093 14.2407 15.0899L19.6829 8.74074L14.2407 2.39153C13.8813 1.97221 13.9299 1.34091 14.3492 0.981484C14.7685 0.622062 15.3998 0.670623 15.7593 1.08995L21.7593 8.08995Z" fill="#FDF028"/>
<path fill-rule="evenodd" clip-rule="evenodd" d="M0 8.74072C0 8.18844 0.447715 7.74072 1 7.74072H21C21.5523 7.74072 22 8.18844 22 8.74072C22 9.29301 21.5523 9.74072 21 9.74072H1C0.447715 9.74072 0 9.29301 0 8.74072Z" fill="#FDF028"/>
</g>
</svg>
