<svg width="42" height="17" viewBox="0 0 42 17" fill="none" xmlns="http://www.w3.org/2000/svg">
<path fill-rule="evenodd" clip-rule="evenodd" d="M0.240744 9.3915C-0.0802468 9.01701 -0.0802467 8.4644 0.240745 8.08991L6.24074 1.08992C6.60017 0.670589 7.23147 0.622027 7.65079 0.98145C8.07012 1.34087 8.11868 1.97217 7.75926 2.3915L2.31708 8.74071L7.75926 15.0899C8.11868 15.5092 8.07012 16.1405 7.65079 16.5C7.23146 16.8594 6.60016 16.8108 6.24074 16.3915L0.240744 9.3915Z" fill="#FDF028"/>
<path fill-rule="evenodd" clip-rule="evenodd" d="M42 8.74072C42 9.29301 41.5523 9.74072 41 9.74072L1 9.74072C0.447716 9.74072 3.91405e-08 9.293 8.74228e-08 8.74072C1.35705e-07 8.18843 0.447716 7.74072 1 7.74072L41 7.74072C41.5523 7.74072 42 8.18844 42 8.74072Z" fill="#FDF028"/>
</svg>
