<svg width="143" height="121" viewBox="0 0 143 121" fill="none" xmlns="http://www.w3.org/2000/svg">
<g opacity="0.3" clip-path="url(#clip0_3781_11753)">
<path fill-rule="evenodd" clip-rule="evenodd" d="M142.373 19.4006C121.049 29.8128 110.387 42.0469 110.387 56.1034C119.476 57.1446 126.992 60.8322 132.934 67.1663C138.877 73.5004 141.849 80.8322 141.849 89.1619C141.849 98.0123 138.965 105.474 133.197 111.548C127.428 117.622 120.175 120.659 111.435 120.659C101.647 120.659 93.1701 116.711 86.0037 108.815C78.8374 100.919 75.2542 91.3312 75.2542 80.0513C75.2542 46.2117 94.306 19.7477 132.41 0.658691L142.373 19.4006ZM67.1186 19.4006C45.6196 29.8128 34.8702 42.0469 34.8702 56.1034C44.134 57.1446 51.7373 60.8322 57.6801 67.1663C63.6229 73.5004 66.5943 80.8322 66.5943 89.1619C66.5943 98.0123 63.6666 105.474 57.8112 111.548C51.9557 117.622 44.6584 120.659 35.919 120.659C26.1308 120.659 17.6973 116.711 10.6184 108.815C3.53942 100.919 0 91.3312 0 80.0513C0 46.2117 18.9643 19.7477 56.8935 0.658691L67.1186 19.4006Z" fill="#A4A4A4"/>
</g>
<defs>
<clipPath id="clip0_3781_11753">
<rect width="143" height="120" fill="white" transform="translate(0 0.658691)"/>
</clipPath>
</defs>
</svg>
