<svg width="23" height="15" viewBox="0 0 23 15" fill="none" xmlns="http://www.w3.org/2000/svg">
<path d="M12.9395 14.75C5.42299 14.75 1.13567 9.49474 0.957031 0.75H4.72218C4.84585 7.16842 7.62162 9.88714 9.82024 10.4477V0.75H13.3655V6.28553C15.5367 6.0473 17.8177 3.52477 18.5873 0.75H22.1325C21.8426 2.18908 21.2646 3.55165 20.4346 4.7525C19.6047 5.95335 18.5408 6.96663 17.3093 7.72898C18.6839 8.42555 19.898 9.4115 20.8715 10.6217C21.8451 11.832 22.5559 13.239 22.957 14.75H19.0545C18.6943 13.4376 17.9624 12.2628 16.9504 11.3728C15.9384 10.4828 14.6914 9.91727 13.3655 9.747V14.75H12.9395Z" fill="#F2F2FC"/>
</svg>
