<svg width="22" height="22" viewBox="0 0 22 22" fill="none" xmlns="http://www.w3.org/2000/svg">
<path d="M18.8839 3.8125C16.9082 1.84375 14.2741 0.75 11.4936 0.75C5.71313 0.75 1.0302 5.41667 1.0302 11.1771C1.0302 13 1.5424 14.8229 2.42045 16.3542L0.957031 21.75L6.51801 20.2917C8.05459 21.0938 9.73752 21.5312 11.4936 21.5312C17.2741 21.5312 21.957 16.8646 21.957 11.1042C21.8839 8.40625 20.8595 5.78125 18.8839 3.8125ZM16.5424 14.8958C16.3229 15.4792 15.2985 16.0625 14.7863 16.1354C14.3473 16.2083 13.7619 16.2083 13.1765 16.0625C12.8107 15.9167 12.2985 15.7708 11.7131 15.4792C9.07898 14.3854 7.39606 11.7604 7.24972 11.5417C7.10337 11.3958 6.15215 10.1562 6.15215 8.84375C6.15215 7.53125 6.81069 6.94792 7.0302 6.65625C7.24971 6.36458 7.5424 6.36458 7.76191 6.36458C7.90825 6.36458 8.12776 6.36458 8.2741 6.36458C8.42044 6.36458 8.63996 6.29167 8.85947 6.80208C9.07898 7.3125 9.59118 8.625 9.66435 8.69792C9.73752 8.84375 9.73752 8.98958 9.66435 9.13542C9.59118 9.28125 9.518 9.42708 9.37166 9.57292C9.22532 9.71875 9.07898 9.9375 9.00581 10.0104C8.85947 10.1562 8.71313 10.3021 8.85947 10.5208C9.00581 10.8125 9.51801 11.6146 10.3229 12.3437C11.3473 13.2187 12.1522 13.5104 12.4448 13.6563C12.7375 13.8021 12.8839 13.7292 13.0302 13.5833C13.1765 13.4375 13.6887 12.8542 13.8351 12.5625C13.9814 12.2708 14.2009 12.3438 14.4204 12.4167C14.64 12.4896 15.957 13.1458 16.1765 13.2917C16.4692 13.4375 16.6156 13.5104 16.6887 13.5833C16.7619 13.8021 16.7619 14.3125 16.5424 14.8958Z" fill="#F2F2FC"/>
</svg>
