<svg width="21" height="21" viewBox="0 0 21 21" fill="none" xmlns="http://www.w3.org/2000/svg">
<path d="M12.8856 12.6786C11.3142 14.3 11.1999 16.3214 11.0642 20.75C15.1927 20.75 18.0427 20.7357 19.5142 19.3071C20.9427 17.8357 20.957 14.85 20.957 10.8571C16.5285 11 14.507 11.1071 12.8856 12.6786V12.6786ZM0.957031 10.8571C0.957031 14.85 0.971317 17.8357 2.39989 19.3071C3.87132 20.7357 6.72132 20.75 10.8499 20.75C10.707 16.3214 10.5999 14.3 9.02846 12.6786C7.40703 11.1071 5.3856 10.9929 0.957031 10.8571V10.8571ZM10.8499 0.75C6.72846 0.75 3.87132 0.764286 2.39989 2.19286C0.971317 3.66429 0.957031 6.65 0.957031 10.6429C5.3856 10.5 7.40703 10.3929 9.02846 8.82143C10.5999 7.2 10.7142 5.17857 10.8499 0.75V0.75ZM12.8856 8.82143C11.3142 7.2 11.1999 5.17857 11.0642 0.75C15.1927 0.75 18.0427 0.764286 19.5142 2.19286C20.9427 3.66429 20.957 6.65 20.957 10.6429C16.5285 10.5 14.507 10.3929 12.8856 8.82143" fill="#F2F2FC"/>
</svg>
