<svg width="23" height="16" viewBox="0 0 23 16" fill="none" xmlns="http://www.w3.org/2000/svg">
<path fill-rule="evenodd" clip-rule="evenodd" d="M3.21952 14.8068C2.82726 14.6908 2.46935 14.4843 2.17599 14.2049C1.88263 13.9254 1.66243 13.5812 1.53398 13.2012C0.799952 11.2374 0.582463 3.03693 1.99614 1.41807C2.46664 0.891449 3.13092 0.567218 3.8448 0.515759C7.63727 0.11768 19.3545 0.170757 20.7002 0.648453C21.0787 0.768323 21.4245 0.970256 21.7117 1.23912C21.9989 1.50799 22.2201 1.83681 22.3586 2.20096C23.1606 4.23117 23.1878 11.6089 22.2498 13.5595C22.001 14.0673 21.5845 14.4785 21.0672 14.7272C19.6536 15.4172 5.09537 15.4039 3.21952 14.8068ZM9.24125 10.9587L16.0378 7.50869L9.24125 4.03213V10.9587Z" fill="#F2F2FC"/>
</svg>
