<svg width="59" height="55" viewBox="0 0 59 55" fill="none" xmlns="http://www.w3.org/2000/svg">
<path d="M48.0124 53.9124C47.2867 53.9124 45.8379 53.5613 46.2501 52.8261C46.6935 52.0363 47.3389 53.4283 48.9465 52.7206C49.8399 52.3084 50.4206 53.9124 48.0124 53.9124ZM51.6375 52.5259C51.106 52.5259 50.9508 51.8014 51.4308 51.5809C53.5897 50.5904 54.2135 50.1063 54.4957 50.7199C54.8271 51.4413 51.7604 52.5259 51.6375 52.5259ZM45.1488 51.4749C44.7222 51.4749 44.7593 51.3191 43.5933 48.7779C43.32 48.1823 44.22 47.7712 44.4933 48.365C45.1182 49.7276 46.2627 51.4749 45.1488 51.4749ZM56.1639 49.9211C55.1584 49.9211 56.053 48.8797 56.053 48.0307C56.053 47.199 55.479 46.7202 56.0902 46.4404C57.3173 45.8837 57.3323 49.9211 56.1639 49.9211ZM42.9389 46.6573C42.5249 46.6573 42.4991 46.3925 41.849 44.9741C41.2971 45.2881 40.8028 44.4756 41.3355 44.1287C42.5537 43.3353 42.3943 43.7877 43.3883 45.9556C43.5387 46.2834 43.2985 46.6573 42.9389 46.6573ZM38.5666 46.4883C37.8194 46.4883 37.0949 46.2325 36.5203 45.7549C36.0164 45.3391 36.6467 44.5739 37.1513 44.9933C37.7343 45.4745 38.5156 45.6057 39.1927 45.4092C39.8453 45.2252 40.4672 46.4883 38.5666 46.4883ZM55.189 44.9687C54.7648 44.9687 54.8043 44.8231 53.6341 42.2712C53.3602 41.6743 54.2632 41.2645 54.5341 41.8583C55.1602 43.2245 56.2879 44.9687 55.189 44.9687ZM35.41 42.4138C35.2075 42.4665 34.9863 42.3826 34.8695 42.1951C34.5591 41.6971 35.1535 41.4694 35.428 41.195C36.7372 39.8857 36.4376 42.0195 36.3471 43.0657C36.304 43.5678 35.2704 44.0358 35.41 42.4138ZM32.716 42.8362C30.4492 42.8362 29.5714 43.0459 29.5714 42.3413C29.5714 41.6474 30.276 41.8463 32.716 41.8463C33.3715 41.8463 33.3709 42.8362 32.716 42.8362ZM27.4167 42.8362C25.3404 42.8362 25.1373 42.8638 24.6609 42.7541C24.0204 42.6079 24.2475 41.6402 24.882 41.7894C25.2493 41.8733 25.4063 41.8463 27.4161 41.8463C28.0716 41.8463 28.071 42.8362 27.4167 42.8362ZM22.662 41.2387C22.3996 41.2387 22.3666 41.1482 21.5157 40.2974C20.6948 40.2974 19.9075 40.4532 19.9075 39.8024C19.9075 39.1409 20.6936 39.3075 21.7206 39.3075C22.2102 39.3069 24.0396 41.2387 22.662 41.2387ZM17.7528 40.2968C15.486 40.2968 14.6081 40.5065 14.6081 39.8018C14.6081 39.108 15.3128 39.3069 17.7528 39.3069C18.4077 39.3069 18.4071 40.2968 17.7528 40.2968ZM12.4528 40.2968C10.1861 40.2968 9.30763 40.5065 9.30763 39.8018C9.30763 39.108 10.0123 39.3069 12.4528 39.3069C13.1084 39.3069 13.1072 40.2968 12.4528 40.2968ZM4.43853 40.2674C3.789 40.1793 3.92382 39.2008 4.57096 39.2865C4.77888 39.3147 4.66323 39.3075 7.15351 39.3075C7.70537 39.3069 8.71502 40.8457 4.43853 40.2674ZM52.9797 40.1512C52.471 40.1512 51.9911 39.0391 52.6843 38.8377C54.5431 38.2991 55.2902 37.885 55.4802 38.5429C55.6731 39.2092 54.8031 39.2548 53.4741 39.6395C53.4831 39.9187 53.259 40.1512 52.9797 40.1512ZM2.4372 38.7856C1.50185 38.7856 1.28733 35.1898 2.15258 35.1898C2.85304 35.1898 2.64751 36.1827 2.64751 37.0803C2.64751 37.8299 3.36776 38.7856 2.4372 38.7856ZM56.9129 37.4889C56.095 37.4889 56.5929 36.5883 56.5929 36.0305C56.5929 34.8549 55.6779 34.5037 56.3095 34.0621C57.4558 33.2628 58.1724 37.4889 56.9129 37.4889ZM2.15258 33.5294C1.4587 33.5294 1.65765 32.8248 1.65765 30.3848C1.65765 29.7293 2.64751 29.7305 2.64751 30.3848C2.64751 32.6516 2.85724 33.5294 2.15258 33.5294ZM57.089 32.4604C56.3952 32.4604 56.5941 31.7558 56.5941 29.3158C56.5941 28.6603 57.584 28.6615 57.584 29.3158C57.584 31.5826 57.7937 32.4604 57.089 32.4604ZM2.15258 28.2301C1.4587 28.2301 1.65765 27.5254 1.65765 25.0849C1.65765 24.4294 2.64751 24.4306 2.64751 25.0849C2.64751 27.3517 2.85724 28.2301 2.15258 28.2301ZM57.089 27.1605C56.3952 27.1605 56.5941 26.4559 56.5941 24.0153C56.5941 23.3598 57.584 23.361 57.584 24.0153C57.584 26.2821 57.7937 27.1605 57.089 27.1605ZM2.15258 22.9302C1.4587 22.9302 1.65765 22.2255 1.65765 19.785C1.65765 19.1294 2.64751 19.1306 2.64751 19.785C2.64751 22.0517 2.85724 22.9302 2.15258 22.9302ZM57.089 21.8612C56.3952 21.8612 56.5941 21.1565 56.5941 18.716C56.5941 18.0605 57.584 18.0617 57.584 18.716C57.584 20.9828 57.7937 21.8612 57.089 21.8612ZM2.15258 17.6308C1.4587 17.6308 1.65765 16.9262 1.65765 14.4856C1.65765 13.8301 2.64751 13.8313 2.64751 14.4856C2.64751 16.7524 2.85724 17.6308 2.15258 17.6308ZM57.089 16.5613C56.3952 16.5613 56.5941 15.8566 56.5941 13.4167C56.5941 12.7611 57.584 12.7623 57.584 13.4167C57.584 15.6828 57.7937 16.5613 57.089 16.5613ZM2.15258 12.3303C1.4587 12.3303 1.65765 11.6257 1.65765 9.18571C1.65765 8.53018 2.64751 8.53138 2.64751 9.18571C2.64751 11.4525 2.85724 12.3303 2.15258 12.3303ZM57.089 11.2613C56.4269 11.2613 56.5941 10.5962 56.5941 8.68658C56.5941 6.92733 54.9685 6.91953 55.4886 6.15855C56.0812 5.28911 57.584 7.16641 57.584 8.68658C57.584 10.3542 57.7895 11.2613 57.089 11.2613ZM51.9072 6.80749C51.9072 5.80562 51.7088 4.83672 52.4021 4.83672C52.4878 4.83672 52.897 4.6953 52.897 5.82719C53.2913 5.62227 53.6622 5.55576 53.8276 5.9722C54.0775 6.59717 53.3393 6.54384 52.7598 7.14963C52.4542 7.469 51.9072 7.25509 51.9072 6.80749ZM2.61156 6.40183C3.65237 5.3724 6.08513 5.06561 5.882 6.10941C5.70584 7.016 4.56856 5.86015 3.30784 7.10529C2.84646 7.56188 2.14538 6.86321 2.61156 6.40183ZM6.83952 6.32632C5.99884 6.32632 6.1055 2.27813 7.24338 2.7539C7.84858 3.00916 7.33567 3.48851 7.33447 4.26268C7.33447 5.34903 7.53699 6.32632 6.83952 6.32632ZM29.5756 3.92713C30.3491 3.17932 31.4559 2.11874 31.8855 2.79584C32.3001 3.44657 31.4019 3.42799 29.98 4.92539C29.2113 5.73372 28.4071 3.61434 29.5756 3.92713ZM27.3454 3.29737C27.0152 3.29737 26.4843 2.72993 24.7724 2.30569C24.1396 2.1487 24.3715 1.18878 25.0109 1.34458C28.6534 2.24937 27.9086 3.29737 27.3454 3.29737ZM51.9563 3.26501C51.3577 3.26501 51.2834 2.06182 49.7177 2.03486C49.0406 2.02287 49.1071 1.00902 49.7351 1.04497C51.7154 1.07913 53.3393 3.26501 51.9563 3.26501ZM33.8676 2.4543C33.3008 2.4543 33.1822 1.65017 33.7238 1.48599C37.8242 0.245646 37.1495 2.02167 36.4886 2.03785C34.8941 2.0762 34.1001 2.4543 33.8676 2.4543ZM9.0188 2.08878C8.4256 2.08878 8.33872 1.22653 8.92174 1.10849C9.37114 1.01801 9.5569 1.04497 11.6655 1.04497C12.321 1.04497 12.3198 2.03486 11.6655 2.03486C8.58919 2.03486 9.26807 2.08878 9.0188 2.08878ZM47.077 2.03486C44.8102 2.03486 43.9318 2.24458 43.9318 1.53992C43.9318 0.846043 44.6365 1.04497 47.077 1.04497C47.7325 1.04497 47.7319 2.03486 47.077 2.03486ZM41.7771 2.03486C39.5103 2.03486 38.6325 2.24458 38.6325 1.53992C38.6325 0.846043 39.3371 1.04497 41.7771 1.04497C42.432 1.04497 42.4314 2.03486 41.7771 2.03486ZM22.2653 2.03486C19.9986 2.03486 19.1201 2.24458 19.1201 1.53992C19.1201 0.846043 19.8248 1.04497 22.2653 1.04497C22.9203 1.04497 22.9197 2.03486 22.2653 2.03486ZM16.9654 2.03486C14.6986 2.03486 13.8202 2.24458 13.8202 1.53992C13.8202 0.846043 14.5249 1.04497 16.9654 1.04497C17.6209 1.04497 17.6203 2.03486 16.9654 2.03486Z" fill="#250D0F"/>
<path d="M48.8924 29.6366C48.283 30.4809 49.5605 31.0358 41.1915 25.0042C45.8772 25.0042 47.5412 25.4153 47.5412 23.7669C47.5412 23.0838 46.9917 22.5295 46.3038 22.5295V21.7919C47.9421 21.7919 47.9415 19.3172 46.3038 19.3172V18.5796C47.9421 18.5796 47.9415 16.1049 46.3038 16.1049V15.3673C47.9421 15.3673 47.9415 12.8926 46.3038 12.8926V12.1502C46.9917 12.1502 47.5412 11.6007 47.5412 10.9128C47.5412 9.22666 46.9462 9.67546 32.9902 9.67546C32.3916 9.67546 31.8913 10.1009 31.7774 10.6653L30.9164 10.5467C31.8344 3.85363 39.3759 5.49844 48.4418 5.49844C48.4424 30.7356 48.2494 29.1081 48.8924 29.6366Z" fill="url(#paint0_linear_6002_11249)"/>
<path d="M46.3046 21.7922C46.3046 22.8348 48.2322 22.5298 32.991 22.5298C31.354 22.5298 31.3534 25.0045 32.991 25.0045C40.5415 25.0045 38.9237 24.7864 38.8512 25.6229C38.1213 34.0752 38.4545 32.9823 37.624 32.9134C37.8709 30.6939 32.4145 30.9084 31.309 34.4132C30.6595 34.4132 30.8584 36.9993 30.8584 11.3595C30.8584 10.3271 30.8374 10.5368 31.7788 10.6669C31.626 11.4806 32.239 12.1517 32.9916 12.1517C48.3191 12.1517 46.3052 11.8551 46.3052 12.8941C32.3828 12.8941 31.7542 12.4447 31.7542 14.1314C31.7542 15.8158 32.3492 15.3688 46.3052 15.3688C46.3052 16.4114 48.2328 16.1064 32.9916 16.1064C31.3546 16.1064 31.354 18.5811 32.9916 18.5811C48.2298 18.5811 46.3052 18.2755 46.3052 19.3187C32.3828 19.3187 31.7542 18.8693 31.7542 20.5561C31.7536 22.2392 32.3486 21.7922 46.3046 21.7922Z" fill="url(#paint1_linear_6002_11249)"/>
<path d="M28.3829 11.3587C28.3829 36.9715 28.5848 34.4123 27.9323 34.4123C26.7327 30.6092 23.6295 31.547 10.7982 31.547C10.7982 22.5008 10.4986 23.7669 11.6988 23.7669C11.6988 25.4531 12.2938 25.0043 26.2498 25.0043C27.8868 25.0043 27.8874 22.5296 26.2498 22.5296V21.792C27.8868 21.792 27.8874 19.3173 26.2498 19.3173V18.5797C27.8868 18.5797 27.8874 16.105 26.2498 16.105V15.3674C27.8868 15.3674 27.8874 12.8927 26.2498 12.8927V12.1502C27 12.1502 27.6153 11.4815 27.4625 10.6654C28.4039 10.536 28.3829 10.3263 28.3829 11.3587Z" fill="url(#paint2_linear_6002_11249)"/>
<path d="M28.3243 10.5476L27.4632 10.6663C27.3494 10.1018 26.8496 9.67639 26.2504 9.67639C13.0027 9.67639 11.6995 9.18505 11.6995 10.9137C11.6995 12.5999 12.2795 12.1511 26.2504 12.1511C26.2504 13.1931 28.2176 12.8935 12.9368 12.8935C11.2986 12.8935 11.2992 15.3682 12.9368 15.3682C28.1751 15.3682 26.2504 15.0626 26.2504 16.1058C13.0027 16.1058 11.6995 15.6145 11.6995 17.3432C11.6995 19.0293 12.2945 18.5805 26.2504 18.5805C26.2504 19.6231 28.1781 19.3181 12.9368 19.3181C11.2986 19.3181 11.2992 21.7928 12.9368 21.7928C28.1751 21.7928 26.2504 21.4872 26.2504 22.5304C13.0027 22.5304 11.6995 22.0391 11.6995 23.7678C10.4285 23.7678 10.7989 26.4234 10.7989 5.49996C19.8336 5.49936 27.4099 3.88093 28.3243 10.5476Z" fill="url(#paint3_linear_6002_11249)"/>
<path d="M49.8818 30.6269C49.2724 31.4711 50.5499 32.026 42.1809 25.9944C46.8666 25.9944 48.5306 26.4055 48.5306 24.7571C48.5306 24.074 47.9811 23.5197 47.2932 23.5197V22.7821C48.9315 22.7821 48.9309 20.3074 47.2932 20.3074V19.5698C48.9315 19.5698 48.9309 17.0951 47.2932 17.0951V16.3575C48.9315 16.3575 48.9309 13.8828 47.2932 13.8828V13.1404C47.9811 13.1404 48.5306 12.5909 48.5306 11.903C48.5306 10.2169 47.9356 10.6657 33.9796 10.6657C33.381 10.6657 32.8807 11.0911 32.7668 11.6556L31.9058 11.5369C32.8237 4.84387 40.3653 6.48867 49.4312 6.48867C49.4318 31.7258 49.2388 30.0984 49.8818 30.6269Z" fill="url(#paint4_linear_6002_11249)"/>
<path d="M47.2939 22.7825C47.2939 23.8251 49.2216 23.5201 33.9803 23.5201C32.3433 23.5201 32.3427 25.9948 33.9803 25.9948C41.5308 25.9948 39.913 25.7766 39.8405 26.6131C39.1107 35.0655 39.4438 33.9725 38.6133 33.9036C38.8602 31.6842 33.4039 31.8987 32.2983 35.4034C31.6488 35.4034 31.8477 37.9896 31.8477 12.3498C31.8477 11.3173 31.8268 11.5271 32.7681 11.6571C32.6153 12.4708 33.2283 13.1419 33.9809 13.1419C49.3084 13.1419 47.2945 12.8453 47.2945 13.8843C33.3721 13.8843 32.7435 13.4343 32.7435 15.1217C32.7435 16.806 33.3385 16.359 47.2945 16.359C47.2945 17.4016 49.2221 17.0966 33.9809 17.0966C32.3439 17.0966 32.3433 19.5713 33.9809 19.5713C49.2191 19.5713 47.2945 19.2657 47.2945 20.3089C33.3721 20.3089 32.7435 19.859 32.7435 21.5463C32.7435 23.2295 33.3386 22.7825 47.2939 22.7825Z" fill="url(#paint5_linear_6002_11249)"/>
<path d="M29.3732 12.3494C29.3732 37.9622 29.5751 35.4031 28.9226 35.4031C27.723 31.5999 24.6197 32.5377 11.7885 32.5377C11.7885 23.4916 11.4889 24.7577 12.6891 24.7577C12.6891 26.4438 13.2841 25.995 27.24 25.995C28.8771 25.995 28.8777 23.5203 27.24 23.5203V22.7827C28.8771 22.7827 28.8777 20.308 27.24 20.308V19.5704C28.8771 19.5704 28.8777 17.0957 27.24 17.0957V16.3581C28.8771 16.3581 28.8777 13.8834 27.24 13.8834V13.141C27.9902 13.141 28.6056 12.4723 28.4528 11.6562C29.3942 11.5267 29.3732 11.317 29.3732 12.3494Z" fill="url(#paint6_linear_6002_11249)"/>
<path d="M29.313 11.5379L28.452 11.6565C28.3381 11.0921 27.8384 10.6666 27.2392 10.6666C13.9915 10.6666 12.6882 10.1753 12.6882 11.904C12.6882 13.5901 13.2682 13.1413 27.2392 13.1413C27.2392 14.1833 29.2064 13.8837 13.9256 13.8837C12.2874 13.8837 12.288 16.3584 13.9256 16.3584C29.1638 16.3584 27.2392 16.0528 27.2392 17.096C13.9915 17.096 12.6882 16.6047 12.6882 18.3334C12.6882 20.0195 13.2832 19.5707 27.2392 19.5707C27.2392 20.6134 29.1668 20.3084 13.9256 20.3084C12.2874 20.3084 12.288 22.7831 13.9256 22.7831C29.1638 22.7831 27.2392 22.4775 27.2392 23.5207C13.9915 23.5207 12.6882 23.0293 12.6882 24.758C11.4173 24.758 11.7876 27.4137 11.7876 6.4902C20.8218 6.4896 28.3986 4.87116 29.313 11.5379Z" fill="url(#paint7_linear_6002_11249)"/>
<path d="M55.6048 8.68675C55.6048 33.7579 56.1225 33.9574 54.3675 33.9574C52.6058 33.9574 53.1301 33.7195 53.1301 8.68675C53.1301 7.04973 55.6048 7.04973 55.6048 8.68675Z" fill="#250D0F"/>
<path d="M55.0889 35.0263C55.9295 35.6297 55.6929 36.9282 54.7126 37.2188L50.7531 38.3668C56.2981 50.4569 57.225 47.8336 48.5258 51.8237C47.0087 52.493 47.0374 51.5421 42.6908 42.0639L39.2412 44.3109C38.3796 44.8712 37.2441 44.1947 37.331 43.1676C38.394 30.9194 38.053 34.8645 38.8506 25.6225C38.9237 24.7836 40.5541 25.0041 32.9904 25.0041C31.3534 25.0041 31.3528 22.5294 32.9904 22.5294C46.2381 22.5294 47.5414 22.038 47.5414 23.7667C47.5414 25.4163 45.86 25.0041 41.1916 25.0041C49.9375 31.3083 46.739 29.0013 55.0889 35.0263ZM52.1833 47.4244C46.7792 35.6339 46.2465 37.0995 51.5847 35.5512L41.1269 28.0085L40.0184 40.8565C44.6969 37.8018 43.1912 37.2194 48.6199 49.0572L52.1833 47.4244Z" fill="#250D0F"/>
<path d="M50.9168 4.26222C50.9168 29.7103 51.4435 29.9188 49.6794 29.9188C47.9142 29.9188 48.4421 29.5772 48.4421 5.49957H36.7175C33.4585 5.49957 30.8573 8.15522 30.8573 11.3591C30.8573 36.972 30.6554 34.4128 31.308 34.4128C32.4081 30.926 37.871 30.6834 37.6229 32.913C37.4911 34.1911 36.1974 34.0215 35.2225 34.0215C32.8557 34.0215 34.3279 36.8869 32.3572 36.8869C30.4427 36.8869 28.7979 36.8869 26.8835 36.8869C24.9534 36.8869 26.3358 34.0215 24.0181 34.0215C8.84335 34.0215 8.32383 34.4787 8.32383 32.7841C8.32383 2.78518 7.79474 3.02426 9.56118 3.02426C21.7962 3.02426 26.44 1.84683 29.6206 7.00835C32.7125 1.99064 36.6552 3.02426 49.68 3.02426C50.3619 3.02486 50.9168 3.57913 50.9168 4.26222ZM28.3827 34.4128C28.3827 2.68152 31.8328 5.49957 10.7979 5.49957C10.7979 8.75502 10.7979 23.6326 10.7979 31.5474C22.2708 31.5474 26.6582 30.3748 27.9321 34.4128H28.3827Z" fill="#250D0F"/>
<path d="M46.3045 9.6763C47.9409 9.6763 47.9451 12.151 46.3045 12.151C32.7949 12.151 31.7535 12.6256 31.7535 10.9136C31.7535 9.2293 32.3485 9.6763 46.3045 9.6763Z" fill="#250D0F"/>
<path d="M46.3045 12.8936C47.9427 12.8936 47.9421 15.3683 46.3045 15.3683C32.3821 15.3683 31.7535 15.8177 31.7535 14.1309C31.7535 12.4466 32.3485 12.8936 46.3045 12.8936Z" fill="#250D0F"/>
<path d="M46.3045 16.1055C47.9427 16.1055 47.9421 18.5802 46.3045 18.5802C32.3821 18.5802 31.7535 19.0302 31.7535 17.3428C31.7535 15.6585 32.3485 16.1055 46.3045 16.1055Z" fill="#250D0F"/>
<path d="M46.3045 19.3179C47.9427 19.3179 47.9421 21.7926 46.3045 21.7926C32.3821 21.7926 31.7535 22.242 31.7535 20.5553C31.7535 18.8709 32.3485 19.3179 46.3045 19.3179Z" fill="#250D0F"/>
<path d="M37.2672 36.2043C38.4417 37.3787 36.7717 38.4519 34.7284 40.4952C34.2287 40.9949 34.4354 40.8565 25.3893 40.8565C24.723 40.8565 24.6666 40.6486 22.3358 38.3177C4.6204 38.3177 3.63772 38.845 3.63772 37.0803C3.63772 7.22038 3.10683 7.44927 4.87507 7.44927C6.64331 7.44927 6.11242 7.3516 6.11242 35.843C24.2484 35.843 23.195 35.689 23.7217 36.2043C26.6248 39.1074 24.4138 38.3818 33.3431 38.3818C34.7086 37.0162 36.067 35.0035 37.2672 36.2043Z" fill="#250D0F"/>
<path d="M26.2504 12.1514C12.4083 12.1514 11.6994 12.6008 11.6994 10.9141C11.6994 9.22792 12.2944 9.67672 26.2504 9.67672C27.891 9.67672 27.8838 12.1514 26.2504 12.1514Z" fill="#250D0F"/>
<path d="M26.2504 12.8935C27.8874 12.8935 27.888 15.3682 26.2504 15.3682C13.0027 15.3682 11.6994 15.8596 11.6994 14.1309C11.7 12.4447 12.295 12.8935 26.2504 12.8935Z" fill="#250D0F"/>
<path d="M26.2504 16.1054C27.8874 16.1054 27.888 18.5801 26.2504 18.5801C13.0027 18.5801 11.6994 19.0715 11.6994 17.3428C11.7 15.6566 12.295 16.1054 26.2504 16.1054Z" fill="#250D0F"/>
<path d="M26.2504 19.3178C27.8874 19.3178 27.888 21.7925 26.2504 21.7925C13.0027 21.7925 11.6994 22.2839 11.6994 20.5552C11.7 18.869 12.295 19.3178 26.2504 19.3178Z" fill="#250D0F"/>
<path d="M26.2504 22.5299C27.8874 22.5299 27.888 25.0046 26.2504 25.0046C13.0027 25.0046 11.6994 25.4959 11.6994 23.7672C11.7 22.0805 12.295 22.5299 26.2504 22.5299Z" fill="#250D0F"/>
<defs>
<linearGradient id="paint0_linear_6002_11249" x1="29.9845" y1="21.5413" x2="55.9319" y2="17.2469" gradientUnits="userSpaceOnUse">
<stop stop-color="#E7AA39"/>
<stop offset="0.2327" stop-color="#F7FC97"/>
<stop offset="0.4456" stop-color="#E7AA39"/>
<stop offset="1" stop-color="#632507"/>
</linearGradient>
<linearGradient id="paint1_linear_6002_11249" x1="30.023" y1="26.1884" x2="52.6029" y2="22.831" gradientUnits="userSpaceOnUse">
<stop stop-color="#E7AA39"/>
<stop offset="0.2327" stop-color="#F7FC97"/>
<stop offset="0.4456" stop-color="#E7AA39"/>
<stop offset="1" stop-color="#632507"/>
</linearGradient>
<linearGradient id="paint2_linear_6002_11249" x1="9.85013" y1="26.1863" x2="35.2975" y2="21.8953" gradientUnits="userSpaceOnUse">
<stop stop-color="#E7AA39"/>
<stop offset="0.2327" stop-color="#F7FC97"/>
<stop offset="0.4456" stop-color="#E7AA39"/>
<stop offset="1" stop-color="#632507"/>
</linearGradient>
<linearGradient id="paint3_linear_6002_11249" x1="9.83756" y1="17.4443" x2="34.7336" y2="12.0513" gradientUnits="userSpaceOnUse">
<stop stop-color="#E7AA39"/>
<stop offset="0.2327" stop-color="#F7FC97"/>
<stop offset="0.4456" stop-color="#E7AA39"/>
<stop offset="1" stop-color="#632507"/>
</linearGradient>
<linearGradient id="paint4_linear_6002_11249" x1="30.9739" y1="22.5315" x2="56.9212" y2="18.2371" gradientUnits="userSpaceOnUse">
<stop stop-color="#E7AA39"/>
<stop offset="0.2327" stop-color="#F7FC97"/>
<stop offset="0.4456" stop-color="#E7AA39"/>
<stop offset="1" stop-color="#632507"/>
</linearGradient>
<linearGradient id="paint5_linear_6002_11249" x1="31.0123" y1="27.1786" x2="53.5922" y2="23.8212" gradientUnits="userSpaceOnUse">
<stop stop-color="#E7AA39"/>
<stop offset="0.2327" stop-color="#F7FC97"/>
<stop offset="0.4456" stop-color="#E7AA39"/>
<stop offset="1" stop-color="#632507"/>
</linearGradient>
<linearGradient id="paint6_linear_6002_11249" x1="10.8404" y1="27.177" x2="36.2877" y2="22.8861" gradientUnits="userSpaceOnUse">
<stop stop-color="#E7AA39"/>
<stop offset="0.2327" stop-color="#F7FC97"/>
<stop offset="0.4456" stop-color="#E7AA39"/>
<stop offset="1" stop-color="#632507"/>
</linearGradient>
<linearGradient id="paint7_linear_6002_11249" x1="10.8263" y1="18.4346" x2="35.7224" y2="13.0416" gradientUnits="userSpaceOnUse">
<stop stop-color="#E7AA39"/>
<stop offset="0.2327" stop-color="#F7FC97"/>
<stop offset="0.4456" stop-color="#E7AA39"/>
<stop offset="1" stop-color="#632507"/>
</linearGradient>
</defs>
</svg>
