<svg width="59" height="45" viewBox="0 0 59 45" fill="none" xmlns="http://www.w3.org/2000/svg">
<path d="M46.2024 45C41.588 45 42.9919 43.4916 43.5725 43.6325C45.9118 44.2062 46.7288 43.6495 46.7219 44.4848C46.7194 44.7704 46.4879 45 46.2024 45ZM48.9606 44.7031C48.3448 44.7031 48.2454 43.8143 48.8455 43.6772C51.2093 43.1375 51.671 42.2739 52.0402 43.0211C52.4887 43.9238 49.2065 44.7031 48.9606 44.7031ZM38.2121 42.0084C37.6913 41.5593 38.3675 40.7731 38.8902 41.2203C40.7344 42.8073 41.6955 42.6632 41.3144 43.4036C40.8973 44.2163 39.2802 42.9255 38.2121 42.0084ZM53.9027 42.2588C53.4183 42.2588 53.1963 41.6499 53.5706 41.3392C55.4349 39.7925 55.467 38.8143 56.1319 39.3176C56.9125 39.9082 54.3197 42.2588 53.9027 42.2588ZM29.7998 40.8026C29.7998 40.1101 30.6301 40.2831 31.6151 40.2831C32.6379 40.2831 33.1171 39.5157 33.487 40.1686C34.1883 41.4015 29.7998 41.7763 29.7998 40.8026ZM27.5379 41.3222C25.1583 41.3222 24.2362 41.5424 24.2362 40.8026C24.2362 40.0743 24.9759 40.2831 27.5379 40.2831C28.2254 40.2831 28.2248 41.3222 27.5379 41.3222ZM19.6168 38.23C20.1244 37.7224 20.5754 38.4539 21.7214 39.6C22.1265 40.0051 22.7895 40.1466 22.4882 40.7127C21.9045 41.8097 19.0658 38.7804 19.6168 38.23ZM36.6729 40.0919C36.3276 40.0919 36.1351 39.8082 35.5483 38.7911C35.0985 39.2408 34.7985 39.0018 34.7004 38.9043C34.1512 38.3552 35.6929 36.8053 36.1389 37.6972C36.6264 38.6684 37.8913 40.0919 36.6729 40.0919ZM17.3127 38.8496C14.9332 38.8496 14.0117 39.0697 14.0117 38.33C14.0117 37.6016 14.7514 37.8105 17.3127 37.8105C18.0009 37.8105 17.9996 38.8496 17.3127 38.8496ZM11.7492 38.8496C9.36964 38.8496 8.44751 39.0697 8.44751 38.33C8.44751 37.6016 9.18723 37.8105 11.7492 37.8105C12.4373 37.8105 12.4367 38.8496 11.7492 38.8496ZM6.18623 38.8496C3.43307 38.8496 2.53674 39.0182 1.41837 38.2023C0.862323 37.7972 1.4756 36.9582 2.03038 37.3632C2.84432 37.9564 3.43747 37.8105 6.18623 37.8105C6.87436 37.8105 6.8731 38.8496 6.18623 38.8496ZM57.2207 37.8576C56.8496 37.8576 56.5942 37.4752 56.7451 37.1299C57.7214 34.9038 57.3012 34.0276 58.1214 34.1723C59.0291 34.3352 57.9529 37.8576 57.2207 37.8576ZM0.546571 35.9021C-0.181819 35.9021 0.0269992 35.1623 0.0269992 32.6004C0.0269992 31.9123 1.06612 31.9135 1.06612 32.6004C1.06612 34.9799 1.28628 35.9021 0.546571 35.9021ZM58.2158 32.4337C57.4874 32.4337 57.6962 31.694 57.6962 29.1321C57.6962 28.4439 58.7353 28.4452 58.7353 29.1321C58.7353 31.5116 58.9555 32.4337 58.2158 32.4337ZM0.546571 30.3391C-0.181819 30.3391 0.0269992 29.5994 0.0269992 27.0375C0.0269992 26.3493 1.06612 26.3506 1.06612 27.0375C1.06612 29.417 1.28628 30.3391 0.546571 30.3391ZM58.1837 26.8714C57.3848 26.8714 57.9025 26.0575 57.1408 23.8C56.9213 23.1496 57.9044 22.8137 58.1252 23.4672C58.4334 24.3818 59.1567 26.8714 58.1837 26.8714ZM0.546571 24.7749C-0.181819 24.7749 0.0269992 24.0352 0.0269992 21.4739C0.0269992 20.7858 1.06612 20.787 1.06612 21.4739C1.06612 23.8534 1.28628 24.7749 0.546571 24.7749ZM56.4269 21.6532C55.8413 21.6532 56.0174 21.0009 54.2927 19.3825C53.7913 18.912 54.5015 18.1553 55.0041 18.6245C56.0123 19.5705 57.8063 21.6532 56.4269 21.6532ZM0.546571 19.212C-0.181819 19.212 0.0269992 18.4723 0.0269992 15.9103C0.0269992 15.2222 1.06612 15.2235 1.06612 15.9103C1.06612 18.2899 1.28628 19.212 0.546571 19.212ZM54.3354 17.4369C53.6322 17.4369 53.9247 16.996 53.9247 14.146C53.9247 13.4578 54.9638 13.4591 54.9638 14.146C54.9638 15.9267 55.1305 17.4369 54.3354 17.4369ZM0.546571 13.6484C-0.181819 13.6484 0.0269992 12.9087 0.0269992 10.3468C0.0269992 9.65864 1.06612 9.65989 1.06612 10.3468C1.06612 12.7263 1.28628 13.6484 0.546571 13.6484ZM54.4443 11.8834C53.7159 11.8834 53.9247 11.1437 53.9247 8.58178C53.9247 7.89364 54.9638 7.8949 54.9638 8.58178C54.9638 10.9613 55.1833 11.8834 54.4443 11.8834ZM0.559777 8.08549C-1.09703 8.08549 1.67941 3.63716 2.47887 5.07947C2.94056 5.91291 1.24665 5.77515 1.07682 7.61437C1.05165 7.88358 0.825218 8.08549 0.559777 8.08549ZM53.7505 6.48844C53.2133 6.48844 52.8636 5.33799 51.3212 5.50971C50.6438 5.59274 50.5161 4.55614 51.2036 4.47751C53.5366 4.20767 55.2009 6.48844 53.7505 6.48844ZM5.11378 6.06826C4.43194 6.06826 3.70418 4.95556 4.59423 4.77818C4.59423 3.58558 4.58855 3.44783 4.60868 3.21509C4.66969 2.52948 5.70442 2.62257 5.64341 3.30756C5.50566 4.80082 5.97741 6.06826 5.11378 6.06826ZM49.8777 4.79641C49.2707 4.79641 49.3581 4.18061 49.3581 3.52079C49.3581 2.16276 48.2152 1.81366 48.8505 1.26768C49.9827 0.293352 51.1451 4.79641 49.8777 4.79641ZM27.8631 3.70698C25.7993 3.70698 30.0942 0.303417 30.6257 1.40732C30.9993 2.17723 29.9507 1.98916 28.2128 3.57174C28.1128 3.66232 27.9876 3.70698 27.8631 3.70698ZM25.7213 2.64459C25.3338 2.64459 24.8809 2.02061 23.0442 1.51489C22.3825 1.3331 22.6561 0.332357 23.3204 0.513511C26.8629 1.48721 26.4289 2.64459 25.7213 2.64459ZM6.58629 1.54131C6.12774 1.54131 4.76342 0.143657 9.30548 0.143657C9.99361 0.143657 9.99235 1.18277 9.30548 1.18277C6.55483 1.18277 7.04861 1.54131 6.58629 1.54131ZM32.7995 1.31423C32.1667 1.31423 32.0881 0.385815 32.7152 0.282029C37.1717 -0.453908 36.1898 1.18277 35.5747 1.18277C32.4976 1.18277 33.2738 1.31423 32.7995 1.31423ZM46.7018 1.18277C44.3223 1.18277 43.4001 1.40292 43.4001 0.663209C43.4001 -0.0651805 44.1399 0.143657 46.7018 0.143657C47.3899 0.143657 47.3887 1.18277 46.7018 1.18277ZM41.1382 1.18277C38.7587 1.18277 37.8372 1.40292 37.8372 0.663209C37.8372 -0.0651805 38.5769 0.143657 41.1382 0.143657C41.8257 0.143657 41.8251 1.18277 41.1382 1.18277ZM20.4326 1.18277C18.0531 1.18277 17.1309 1.40292 17.1309 0.663209C17.1309 -0.0651805 17.8707 0.143657 20.4326 0.143657C21.1201 0.143657 21.1195 1.18277 20.4326 1.18277ZM14.869 1.18277C12.4895 1.18277 11.5674 1.40292 11.5674 0.663209C11.5674 -0.0651805 12.3071 0.143657 14.869 0.143657C15.5572 0.143657 15.5565 1.18277 14.869 1.18277Z" fill="#250D0F"/>
<path d="M47.0203 17.4335C47.0203 17.6675 45.8919 17.3165 43.9652 17.6468L43.9288 17.4235C45.529 17.2153 45.3774 14.8364 43.7627 14.8364V14.2961C45.4811 14.2961 45.4811 11.6983 43.7627 11.6983V11.1579C44.4798 11.1579 45.0616 10.5761 45.0616 9.85905C45.0616 8.07141 44.1552 8.56015 30.7586 8.56015C30.0831 8.56015 29.5327 9.06901 29.4648 9.7238L28.8464 9.6565C29.734 3.27335 36.826 4.81944 45.7214 4.81944C45.7214 16.302 45.2478 17.4335 47.0203 17.4335Z" fill="url(#paint0_linear_6002_11306)"/>
<path d="M39.5546 19.6729C39.8371 18.8263 39.1942 17.974 38.323 17.974C30.9322 17.974 29.4597 17.5331 29.4597 19.2729C29.4597 21.019 30.9259 20.5718 38.323 20.5718C38.9577 20.5718 38.6281 20.1724 37.4657 22.0317C37.0832 20.8114 36.3209 21.1121 30.7586 21.1121C29.0408 21.1121 29.0364 23.7099 30.7586 23.7099C36.6989 23.7099 36.3618 23.7388 36.6448 23.6369C35.7667 25.8636 35.9592 27.2462 35.9592 31.2901H35.3875C35.3875 29.2181 30.2535 29.264 29.0697 32.7815C28.6716 32.7815 28.7942 35.2849 28.7942 10.431C28.7942 9.44908 28.808 9.65287 29.4641 9.72458C29.381 10.4706 29.9698 11.1587 30.7579 11.1587C45.2188 11.1587 43.762 10.9172 43.762 11.699C30.4535 11.699 29.459 11.2141 29.459 12.9979C29.459 14.7692 30.2409 14.2968 43.762 14.2968C43.762 15.0667 45.6163 14.8371 30.7579 14.8371C29.0382 14.8371 29.0389 17.4349 30.7579 17.4349C50.7572 17.4337 43.0456 16.8336 39.5546 19.6729Z" fill="url(#paint1_linear_6002_11306)"/>
<path d="M26.1976 10.4301C26.1976 35.2665 26.3209 32.7806 25.9221 32.7806C24.6754 29.0764 21.6713 29.991 9.27105 29.991C9.27105 21.2723 9.00687 22.4108 9.93088 22.4108C9.93088 24.1916 10.7486 23.7097 24.2339 23.7097C25.9561 23.7097 25.9492 21.1119 24.2339 21.1119V20.5716C25.9561 20.5716 25.9492 17.9738 24.2339 17.9738V17.4335C25.9523 17.4335 25.9529 14.8357 24.2339 14.8357V14.2954C25.9523 14.2954 25.9529 11.6976 24.2339 11.6976V11.1573C25.0144 11.1573 25.6107 10.471 25.5277 9.72315C26.1838 9.65207 26.1976 9.44826 26.1976 10.4301Z" fill="url(#paint2_linear_6002_11306)"/>
<path d="M26.1457 9.65681L25.5274 9.72411C25.4601 9.06931 24.904 8.56045 24.2335 8.56045C10.9489 8.56045 9.93052 8.07235 9.93052 9.85935C9.93052 11.647 10.8369 11.1582 24.2335 11.1582C24.2335 11.9281 26.0878 11.6986 11.2294 11.6986C9.51098 11.6986 9.51035 14.2964 11.2294 14.2964C25.6903 14.2964 24.2335 14.0548 24.2335 14.8367C10.9489 14.8367 9.93052 14.3486 9.93052 16.1356C9.93052 17.9232 10.8369 17.4345 24.2335 17.4345C24.2335 18.2044 26.0878 17.9748 11.2294 17.9748C9.51349 17.9748 9.5072 20.5726 11.2294 20.5726C25.6903 20.5726 24.2335 20.331 24.2335 21.1129C10.9489 21.1129 9.93052 20.6248 9.93052 22.4118C8.99456 22.4118 9.27069 24.9423 9.27069 4.82038C17.8862 4.81975 25.25 3.21327 26.1457 9.65681Z" fill="url(#paint3_linear_6002_11306)"/>
<path d="M48.0602 18.4726C48.0602 18.7066 46.9318 18.3556 45.0051 18.6858L44.9687 18.4625C46.5688 18.2543 46.4173 15.8754 44.8026 15.8754V15.3351C46.5211 15.3351 46.5217 12.7373 44.8026 12.7373V12.197C45.5197 12.197 46.1015 11.6152 46.1015 10.8981C46.1015 9.11046 45.1951 9.5992 31.7985 9.5992C31.123 9.5992 30.5726 10.1081 30.5046 10.7629L29.8864 10.6956C30.7739 4.31241 37.8659 5.8585 46.7613 5.8585C46.7613 17.341 46.2877 18.4726 48.0602 18.4726Z" fill="url(#paint4_linear_6002_11306)"/>
<path d="M40.5935 20.712C40.876 19.8654 40.2331 19.0131 39.3619 19.0131C31.9711 19.0131 30.4986 18.5721 30.4986 20.312C30.4986 22.0581 31.9648 21.6109 39.3619 21.6109C39.9966 21.6109 39.667 21.2114 38.5046 23.0708C38.1222 21.8511 37.3598 22.1512 31.7975 22.1512C30.0797 22.1512 30.0753 24.749 31.7975 24.749C37.7379 24.749 37.4007 24.7779 37.6838 24.676C36.8057 26.9027 36.9981 28.2853 36.9981 32.3291H36.4264C36.4264 30.2572 31.2924 30.3031 30.1086 33.8205C29.7105 33.8205 29.8331 36.324 29.8331 11.47C29.8331 10.4881 29.847 10.6919 30.503 10.7636C30.42 11.5096 31.0088 12.1978 31.7969 12.1978C46.2578 12.1978 44.801 11.9562 44.801 12.7381C31.4924 12.7381 30.498 12.2531 30.498 14.037C30.498 15.8083 31.2798 15.3359 44.801 15.3359C44.801 16.1058 46.6553 15.8762 31.7969 15.8762C30.0772 15.8762 30.0778 18.474 31.7969 18.474C51.7962 18.4728 44.0845 17.8727 40.5935 20.712Z" fill="url(#paint5_linear_6002_11306)"/>
<path d="M27.2358 11.4692C27.2358 36.3055 27.3591 33.8197 26.9603 33.8197C25.7136 30.1155 22.7095 31.0301 10.3093 31.0301C10.3093 22.3114 10.0451 23.4499 10.9691 23.4499C10.9691 25.2306 11.7868 24.7488 25.272 24.7488C26.9943 24.7488 26.9873 22.151 25.272 22.151V21.6107C26.9943 21.6107 26.9873 19.0129 25.272 19.0129V18.4726C26.9905 18.4726 26.9911 15.8748 25.272 15.8748V15.3345C26.9905 15.3345 26.9911 12.7367 25.272 12.7367V12.1963C26.0526 12.1963 26.6489 11.5101 26.5659 10.7622C27.222 10.6911 27.2358 10.4873 27.2358 11.4692Z" fill="url(#paint6_linear_6002_11306)"/>
<path d="M27.1846 10.6959L26.5663 10.7632C26.499 10.1084 25.943 9.59951 25.2724 9.59951C11.9878 9.59951 10.9695 9.11141 10.9695 10.8984C10.9695 12.6861 11.8759 12.1973 25.2724 12.1973C25.2724 12.9672 27.1267 12.7376 12.2683 12.7376C10.5499 12.7376 10.5493 15.3354 12.2683 15.3354C26.7292 15.3354 25.2724 15.0939 25.2724 15.8757C11.9878 15.8757 10.9695 15.3876 10.9695 17.1746C10.9695 18.9623 11.8759 18.4735 25.2724 18.4735C25.2724 19.2434 27.1267 19.0139 12.2683 19.0139C10.5524 19.0139 10.5461 21.6117 12.2683 21.6117C26.7292 21.6117 25.2724 21.3701 25.2724 22.152C11.9878 22.152 10.9695 21.6639 10.9695 23.4509C10.0335 23.4509 10.3096 25.9814 10.3096 5.85944C18.9251 5.85881 26.2889 4.25233 27.1846 10.6959Z" fill="url(#paint7_linear_6002_11306)"/>
<path d="M56.6587 31.3317C56.6587 47.2827 35.96 45.802 35.96 32.5734C35.96 27.1331 35.7624 25.8769 36.6456 23.6371C36.3569 23.7408 36.6764 23.71 30.7593 23.71C29.0365 23.71 29.0428 21.1122 30.7593 21.1122C36.3286 21.1122 37.084 20.8122 37.4664 22.0318C38.6282 20.1725 38.9459 20.5719 38.3238 20.5719C30.8889 20.5719 29.4604 21.0078 29.4604 19.273C29.4604 17.5181 30.9952 17.9741 38.3238 17.9741C39.1956 17.9741 39.8372 18.827 39.5554 19.6731C45.3989 14.9209 56.6587 18.0118 56.6587 27.201V31.3317ZM54.0609 32.5734C54.0609 30.5844 48.4879 29.6221 46.3096 29.6221C44.2383 29.6221 38.5584 30.5681 38.5584 32.5734C38.5578 42.8318 54.0609 42.8236 54.0609 32.5734ZM54.0609 27.2016C54.0609 23.5025 51.219 20.4581 47.6079 20.131C47.6079 25.9493 47.8538 26.5519 46.9374 27.0513C54.8371 27.3149 54.0609 30.8367 54.0609 27.2016ZM45.6649 27.0406C44.7918 26.5399 45.0101 26.2688 45.0101 20.131C41.3248 20.465 38.5571 23.0269 38.5571 28.854C40.563 27.7677 43.0256 27.1287 45.6649 27.0406Z" fill="#250D0F"/>
<path d="M52.8859 7.83254C52.8859 16.0807 53.3262 17.4337 51.587 17.4337C49.834 17.4337 50.2881 16.0455 50.2881 7.83254C50.2881 6.11473 52.8859 6.1141 52.8859 7.83254Z" fill="#250D0F"/>
<path d="M48.3187 3.52038C48.3187 16.7025 48.7697 17.434 47.0198 17.434C45.2857 17.434 45.7209 16.5528 45.7209 4.81928C25.433 4.81928 28.7944 2.10638 28.7944 32.7811C29.2944 32.7811 29.87 29.9915 32.9452 29.9915C33.7069 29.9915 35.387 29.7764 35.387 31.2904C35.387 32.7447 33.8824 32.5893 32.9452 32.5893C30.8368 32.5893 32.0841 35.3789 30.1556 35.3789C28.2817 35.3789 26.696 35.3789 24.8304 35.3789C22.8767 35.3789 24.1819 32.5893 22.0458 32.5893C7.46665 32.5893 6.67221 33.0724 6.67221 31.2904C6.67221 2.17997 6.12183 2.22212 7.97111 2.22212C20.3128 2.22212 24.424 1.22199 27.4955 6.02005C30.6638 1.0704 35.0983 2.22212 47.0198 2.22212C47.7369 2.22149 48.3187 2.80331 48.3187 3.52038ZM26.1966 32.7811C26.1966 1.77175 29.3599 4.81928 9.27001 4.81928C9.27001 12.9681 9.27001 22.283 9.27001 29.9909C20.6745 29.9909 24.631 28.9455 25.9211 32.7805H26.1966V32.7811Z" fill="#250D0F"/>
<path d="M43.7634 8.56001C45.4818 8.56001 45.4818 11.1578 43.7634 11.1578C30.4549 11.1578 29.4604 11.6428 29.4604 9.85891C29.4604 8.07568 30.3964 8.56001 43.7634 8.56001Z" fill="#250D0F"/>
<path d="M43.7634 11.6984C45.4818 11.6984 45.4818 14.2962 43.7634 14.2962C30.4549 14.2962 29.4604 14.7812 29.4604 12.9973C29.4604 11.2254 30.2423 11.6984 43.7634 11.6984Z" fill="#250D0F"/>
<path d="M43.7637 14.8364C45.3765 14.8364 45.5318 17.2153 43.9298 17.4235C43.7518 17.4399 39.7286 17.4342 30.7596 17.4342C29.0399 17.4342 29.0406 14.8364 30.7596 14.8364H43.7637Z" fill="#250D0F"/>
<path d="M35.009 34.5528C36.2324 35.7894 34.4517 36.9493 32.5357 38.8653C32.018 39.3829 32.3288 39.2446 23.3761 39.2446C22.6018 39.2446 22.3672 38.7759 20.3626 36.7713C3.07495 36.7713 2.10563 37.2934 2.10563 35.4724C2.10563 6.43431 1.55965 6.5337 3.40453 6.5337C5.24941 6.5337 4.70343 6.6444 4.70343 34.1735C22.2225 34.1735 21.2803 34.0106 21.8225 34.5528C24.6071 37.3443 22.481 36.6468 31.0808 36.6468C32.6156 35.1088 33.7899 33.3457 35.009 34.5528Z" fill="#250D0F"/>
<path d="M24.2335 11.1579C10.9489 11.1579 9.93054 11.646 9.93054 9.859C9.93054 8.07136 10.8369 8.5601 24.2335 8.5601C25.9526 8.5601 25.9576 11.1579 24.2335 11.1579Z" fill="#250D0F"/>
<path d="M24.2335 11.6984C25.952 11.6984 25.9526 14.2962 24.2335 14.2962C10.9489 14.2962 9.93054 14.7843 9.93054 12.9973C9.93054 11.2091 10.8369 11.6984 24.2335 11.6984Z" fill="#250D0F"/>
<path d="M24.2335 14.8366C25.952 14.8366 25.9526 17.4344 24.2335 17.4344C10.9489 17.4344 9.93054 17.9225 9.93054 16.1355C9.93054 14.3473 10.8369 14.8366 24.2335 14.8366Z" fill="#250D0F"/>
<path d="M24.2335 17.9737C25.9494 17.9737 25.9557 20.5715 24.2335 20.5715C10.8715 20.5715 9.93054 21.0495 9.93054 19.2726C9.93054 17.4849 10.8369 17.9737 24.2335 17.9737Z" fill="#250D0F"/>
<path d="M24.2335 21.1123C25.9494 21.1123 25.9557 23.7101 24.2335 23.7101C10.8715 23.7101 9.93054 24.1882 9.93054 22.4112C9.93054 20.6236 10.8369 21.1123 24.2335 21.1123Z" fill="#250D0F"/>
<defs>
<linearGradient id="paint0_linear_6002_11306" x1="27.9043" y1="13.1417" x2="52.355" y2="5.32197" gradientUnits="userSpaceOnUse">
<stop stop-color="#E7AA39"/>
<stop offset="0.2327" stop-color="#F7FC97"/>
<stop offset="0.4456" stop-color="#E7AA39"/>
<stop offset="1" stop-color="#632507"/>
</linearGradient>
<linearGradient id="paint1_linear_6002_11306" x1="27.9888" y1="24.809" x2="50.0262" y2="21.5086" gradientUnits="userSpaceOnUse">
<stop stop-color="#E7AA39"/>
<stop offset="0.2327" stop-color="#F7FC97"/>
<stop offset="0.4456" stop-color="#E7AA39"/>
<stop offset="1" stop-color="#632507"/>
</linearGradient>
<linearGradient id="paint2_linear_6002_11306" x1="8.35589" y1="24.8073" x2="32.85" y2="20.7076" gradientUnits="userSpaceOnUse">
<stop stop-color="#E7AA39"/>
<stop offset="0.2327" stop-color="#F7FC97"/>
<stop offset="0.4456" stop-color="#E7AA39"/>
<stop offset="1" stop-color="#632507"/>
</linearGradient>
<linearGradient id="paint3_linear_6002_11306" x1="8.35592" y1="16.3168" x2="32.316" y2="11.1328" gradientUnits="userSpaceOnUse">
<stop stop-color="#E7AA39"/>
<stop offset="0.2327" stop-color="#F7FC97"/>
<stop offset="0.4456" stop-color="#E7AA39"/>
<stop offset="1" stop-color="#632507"/>
</linearGradient>
<linearGradient id="paint4_linear_6002_11306" x1="28.9442" y1="14.1808" x2="53.3949" y2="6.36102" gradientUnits="userSpaceOnUse">
<stop stop-color="#E7AA39"/>
<stop offset="0.2327" stop-color="#F7FC97"/>
<stop offset="0.4456" stop-color="#E7AA39"/>
<stop offset="1" stop-color="#632507"/>
</linearGradient>
<linearGradient id="paint5_linear_6002_11306" x1="29.0277" y1="25.8481" x2="51.0651" y2="22.5477" gradientUnits="userSpaceOnUse">
<stop stop-color="#E7AA39"/>
<stop offset="0.2327" stop-color="#F7FC97"/>
<stop offset="0.4456" stop-color="#E7AA39"/>
<stop offset="1" stop-color="#632507"/>
</linearGradient>
<linearGradient id="paint6_linear_6002_11306" x1="9.39409" y1="25.8464" x2="33.8882" y2="21.7467" gradientUnits="userSpaceOnUse">
<stop stop-color="#E7AA39"/>
<stop offset="0.2327" stop-color="#F7FC97"/>
<stop offset="0.4456" stop-color="#E7AA39"/>
<stop offset="1" stop-color="#632507"/>
</linearGradient>
<linearGradient id="paint7_linear_6002_11306" x1="9.39486" y1="17.3559" x2="33.3549" y2="12.1719" gradientUnits="userSpaceOnUse">
<stop stop-color="#E7AA39"/>
<stop offset="0.2327" stop-color="#F7FC97"/>
<stop offset="0.4456" stop-color="#E7AA39"/>
<stop offset="1" stop-color="#632507"/>
</linearGradient>
</defs>
</svg>
