<svg width="62" height="63" viewBox="0 0 62 63" fill="none" xmlns="http://www.w3.org/2000/svg">
<path d="M8.01704 31.5378C8.73128 30.5342 9.62337 29.8935 10.6976 29.6007C11.6587 29.3442 12.5038 29.4427 13.2462 29.9009L17.9613 32.814C17.2193 32.3568 16.3713 32.2583 15.4127 32.5158C14.336 32.8076 13.4454 33.4483 12.7308 34.4509C11.9913 35.4868 11.6441 36.5805 11.6946 37.7268C11.7423 38.8759 12.1684 39.7561 12.9687 40.3676C13.0626 40.4395 13.1576 40.5046 13.2547 40.5654L8.54276 37.6496C8.44494 37.5887 8.34962 37.5229 8.25536 37.4518C7.45432 36.8381 7.03033 35.9625 6.98125 34.8152C6.93145 33.6664 7.27896 32.5738 8.01704 31.5378Z" fill="url(#paint0_linear_6002_13894)"/>
<path d="M4.41406 44.3639C5.67074 45.1406 6.926 45.9194 8.1834 46.6949C8.4989 46.891 8.81192 47.0856 9.12884 47.277C10.4229 48.0778 11.8624 48.5026 13.4499 48.5488C15.3404 48.6022 17.2135 48.134 19.0603 47.1389C20.911 46.1499 22.4924 44.7325 23.8014 42.8978C25.1146 41.0567 25.9466 39.0879 26.3052 36.9843C26.6633 34.886 26.5385 32.9065 25.9306 31.0529C25.3209 29.2004 24.2773 27.7091 22.7998 26.5848C22.5632 26.4034 22.321 26.2373 22.0723 26.0857L17.3601 23.1709C17.6051 23.3228 17.8499 23.4904 18.0864 23.67C19.5636 24.7982 20.6072 26.2885 21.2169 28.141C21.8241 29.9917 21.9514 31.9729 21.5914 34.0713C21.235 36.1728 20.3999 38.1437 19.0884 39.9837C17.7794 41.8184 16.2001 43.2358 14.3491 44.2248C12.4991 45.2171 10.626 45.691 8.73829 45.6347C7.15045 45.5867 5.70809 45.1637 4.41406 44.3639Z" fill="url(#paint1_linear_6002_13894)"/>
<path d="M13.0611 21.9179C14.9367 21.9606 16.6131 22.5458 18.0874 23.6701C19.5646 24.7982 20.6083 26.2885 21.2179 28.141C21.8251 29.9917 21.9524 31.973 21.5925 34.0713C21.2361 36.1728 20.4009 38.1437 19.0894 39.9838C17.7805 41.8185 16.2012 43.2358 14.3501 44.2249C12.5001 45.2171 10.627 45.691 8.73932 45.6348C6.84736 45.5782 5.16277 44.988 3.68414 43.8616C2.21012 42.7367 1.16793 41.2471 0.55826 39.3946C-0.0549637 37.54 -0.16025 35.5577 0.228884 33.4519C0.614461 31.345 1.46671 29.3709 2.77497 27.5362C4.08679 25.6983 5.6604 24.2884 7.49331 23.3143C9.32765 22.3384 11.1858 21.8727 13.0611 21.9179ZM6.98146 34.8145C7.03055 35.9618 7.45454 36.8374 8.25557 37.4511C9.09217 38.0904 10.0472 38.264 11.1175 37.9712C12.1924 37.6823 13.1016 37.0152 13.8411 35.9782C14.5831 34.939 14.9135 33.8496 14.8371 32.7076C14.7563 31.5699 14.3135 30.6929 13.5124 30.0838C12.7093 29.4723 11.7752 29.31 10.6978 29.6003C9.62359 29.8931 8.7315 30.5339 8.01725 31.5375C7.27954 32.5735 6.93202 33.6661 6.98146 34.8145Z" fill="url(#paint2_linear_6002_13894)"/>
<path d="M44.0393 29.6678L48.753 32.5812C48.6545 32.5207 48.562 32.456 48.4688 32.3845C47.6667 31.7722 47.2377 30.891 47.189 29.7447C47.1435 28.5988 47.4906 27.5062 48.2308 26.4666C48.9408 25.4701 49.835 24.8259 50.9082 24.5323C51.8671 24.273 52.7172 24.3733 53.4592 24.834L48.7462 21.9192C48.0032 21.4596 47.1516 21.3603 46.193 21.6175C45.122 21.9096 44.2289 22.5564 43.5139 23.5547C42.7758 24.591 42.4308 25.6836 42.4767 26.8288C42.5265 27.9776 42.9526 28.857 43.7537 29.4704C43.8465 29.5419 43.9418 29.6091 44.0393 29.6678Z" fill="url(#paint3_linear_6002_13894)"/>
<path d="M31.2938 0.262384C31.1782 0.421412 31.0996 0.639136 31.0558 0.91023L20.2863 54.8641C20.1597 55.3874 20.3055 55.8058 20.7235 56.1253L25.535 59.795C25.9519 60.1124 26.3023 60.0722 26.5889 59.6726C26.7302 59.4745 26.8148 59.2884 26.8358 59.1219L37.5526 5.12999C37.6796 4.60666 37.5338 4.18899 37.1144 3.86987L32.3054 0.20013C32.1119 0.0535535 31.923 -0.0136972 31.7384 0.00231228C31.5566 0.0140526 31.4094 0.0997989 31.2938 0.262384Z" fill="url(#paint4_linear_6002_13894)"/>
<path d="M26.591 59.6727C26.7322 59.4745 26.8169 59.2885 26.8379 59.122L37.5544 5.13006C37.6813 4.60672 37.5355 4.18906 37.1161 3.86993L32.3071 0.200195L37.0212 3.11428L41.8302 6.78473C42.2482 7.10207 42.3965 7.51939 42.2681 8.04485L31.5509 62.0368C31.5295 62.2043 31.4474 62.3893 31.3044 62.5882C31.0461 62.9515 30.7331 63.0176 30.3657 62.7903L25.6562 59.8755C26.0201 60.1018 26.3317 60.0388 26.591 59.6727Z" fill="url(#paint5_linear_6002_13894)"/>
<path d="M39.9102 36.3784L44.6239 39.2922C45.919 40.0937 47.3592 40.5174 48.9477 40.5637C50.8404 40.6203 52.7082 40.1556 54.561 39.157C56.4078 38.1626 57.9903 36.7456 59.2975 34.9109C60.6093 33.073 61.4402 31.1067 61.8041 29.002C62.1587 26.9001 62.0353 24.9316 61.4221 23.0728C60.8142 21.2235 59.7699 19.73 58.2962 18.6054C58.0586 18.4254 57.8157 18.2589 57.5663 18.1041C56.3107 17.3285 55.0544 16.5501 53.798 15.7731C53.4818 15.5796 53.1681 15.385 52.8537 15.189C53.1037 15.3451 53.3449 15.5124 53.5821 15.6945C55.0561 16.8166 56.0998 18.3073 56.7084 20.1587C57.3216 22.0144 57.4443 23.9885 57.09 26.089C56.7279 28.1947 55.8945 30.1571 54.5834 31.9993C53.273 33.8326 51.6952 35.25 49.8462 36.2443C47.9906 37.2376 46.127 37.7055 44.2315 37.6478C42.6455 37.6041 41.2045 37.1803 39.9102 36.3784Z" fill="url(#paint6_linear_6002_13894)"/>
<path d="M35.716 25.4665C36.1041 23.3586 36.9549 21.3869 38.2632 19.5522C39.5764 17.7122 41.1458 16.3098 42.9837 15.3279C44.8201 14.3584 46.6719 13.8941 48.5461 13.9379C50.4267 13.9809 52.0991 14.5651 53.5764 15.694C55.0504 16.8161 56.094 18.3067 56.7026 20.1581C57.3158 22.0138 57.4385 23.988 57.0843 26.0884C56.7222 28.1942 55.8888 30.1566 54.5777 31.9988C53.2673 33.832 51.6894 35.2494 49.8405 36.2438C47.9848 37.2371 46.1213 37.7049 44.2258 37.6473C42.3349 37.5928 40.651 37.0016 39.1777 35.8784C37.6998 34.7488 36.654 33.261 36.0472 31.4082C35.4375 29.5546 35.3258 27.5759 35.716 25.4665ZM49.3297 27.9953C50.072 26.9547 50.4018 25.8696 50.3207 24.728C50.2449 23.5881 49.8045 22.7118 49.0053 22.0996C48.2046 21.4894 47.2638 21.3261 46.1874 21.6171C45.1164 21.9092 44.2233 22.556 43.5083 23.5543C42.7702 24.5906 42.4252 25.6832 42.4711 26.8284C42.5209 27.9772 42.947 28.8566 43.7481 29.47C44.5822 30.1043 45.5351 30.2783 46.6121 29.9894C47.6864 29.7001 48.5888 29.0285 49.3297 27.9953Z" fill="url(#paint7_linear_6002_13894)"/>
<defs>
<linearGradient id="paint0_linear_6002_13894" x1="8.71254" y1="40.277" x2="13.8772" y2="30.4185" gradientUnits="userSpaceOnUse">
<stop stop-color="#E7AA39"/>
<stop offset="0.2327" stop-color="#F7FC97"/>
<stop offset="0.4456" stop-color="#E7AA39"/>
<stop offset="1" stop-color="#632507"/>
</linearGradient>
<linearGradient id="paint1_linear_6002_13894" x1="19.9268" y1="15.6007" x2="14.4347" y2="45.7436" gradientUnits="userSpaceOnUse">
<stop stop-color="#E7AA39"/>
<stop offset="0.2327" stop-color="#F7FC97"/>
<stop offset="0.4456" stop-color="#E7AA39"/>
<stop offset="1" stop-color="#632507"/>
</linearGradient>
<linearGradient id="paint2_linear_6002_13894" x1="-46.9386" y1="36.8793" x2="28.6112" y2="32.8301" gradientUnits="userSpaceOnUse">
<stop stop-color="#E7AA39"/>
<stop offset="0.2327" stop-color="#F7FC97"/>
<stop offset="0.4456" stop-color="#E7AA39"/>
<stop offset="1" stop-color="#632507"/>
</linearGradient>
<linearGradient id="paint3_linear_6002_13894" x1="47.9672" y1="35.3016" x2="47.9653" y2="22.017" gradientUnits="userSpaceOnUse">
<stop stop-color="#E7AA39"/>
<stop offset="0.2327" stop-color="#F7FC97"/>
<stop offset="0.4456" stop-color="#E7AA39"/>
<stop offset="1" stop-color="#632507"/>
</linearGradient>
<linearGradient id="paint4_linear_6002_13894" x1="66.8014" y1="1.80795" x2="-0.223448" y2="51.6584" gradientUnits="userSpaceOnUse">
<stop stop-color="#E7AA39"/>
<stop offset="0.2327" stop-color="#F7FC97"/>
<stop offset="0.4456" stop-color="#E7AA39"/>
<stop offset="1" stop-color="#632507"/>
</linearGradient>
<linearGradient id="paint5_linear_6002_13894" x1="45.5951" y1="-5.30449" x2="21.6892" y2="58.44" gradientUnits="userSpaceOnUse">
<stop stop-color="#E7AA39"/>
<stop offset="0.2327" stop-color="#F7FC97"/>
<stop offset="0.4456" stop-color="#E7AA39"/>
<stop offset="1" stop-color="#632507"/>
</linearGradient>
<linearGradient id="paint6_linear_6002_13894" x1="56.9027" y1="19.5858" x2="49.0304" y2="37.3174" gradientUnits="userSpaceOnUse">
<stop stop-color="#E7AA39"/>
<stop offset="0.2327" stop-color="#F7FC97"/>
<stop offset="0.4456" stop-color="#E7AA39"/>
<stop offset="1" stop-color="#632507"/>
</linearGradient>
<linearGradient id="paint7_linear_6002_13894" x1="18.6159" y1="27.2843" x2="94.1774" y2="23.2344" gradientUnits="userSpaceOnUse">
<stop stop-color="#E7AA39"/>
<stop offset="0.2327" stop-color="#F7FC97"/>
<stop offset="0.4456" stop-color="#E7AA39"/>
<stop offset="1" stop-color="#632507"/>
</linearGradient>
</defs>
</svg>
