<svg width="111" height="112" viewBox="0 0 111 112" fill="none" xmlns="http://www.w3.org/2000/svg">
<g clip-path="url(#clip0_6002_11862)">
<path d="M36.0241 90.4551L35.7097 90.4684L29.807 90.7076L28.2862 90.7703L28.244 90.7211L24.9025 86.7128L18.5628 79.1066L19.5603 74.5724L20.2327 71.516L20.5312 71.8719L35.753 90.1303L36.0241 90.4551Z" fill="#FDF028"/>
<path d="M28.2468 90.7205L28.244 90.7212L25.7294 92.8383C25.5393 92.9979 25.2552 92.9708 25.0961 92.7803L15.9729 81.8326C15.8135 81.6412 15.836 81.357 16.0262 81.1974L18.4789 79.1381L18.4781 79.1353L18.5433 79.0826L18.5628 79.1067L24.9132 86.7191L24.914 86.7219L28.2465 90.7195L28.2468 90.7205Z" fill="#FDF028"/>
<path d="M99.0807 57.6378L99.0518 57.7926L99.0525 57.7955C99.0525 57.7955 99.0494 57.8064 99.0502 57.8092L99.0509 57.812L97.517 66.5448C97.5157 66.5512 97.5167 66.5549 97.5147 66.5585C97.5154 66.5613 97.5126 66.5621 97.5134 66.5649C97.5141 66.5677 97.5113 66.5685 97.5121 66.5713C97.5121 66.5713 97.5128 66.5741 97.51 66.5749L96.468 72.5293L96.4559 72.593L94.9824 73.3599L89.7357 76.0935L89.588 76.1712L89.6668 75.7147L93.7738 52.3218L93.8518 51.8846L95.8472 54.0795L99.0636 57.6151L99.082 57.6354L99.0807 57.6378Z" fill="#FDF028"/>
<path d="M99.7007 73.113L96.4653 72.5318L99.0857 57.6069L102.321 58.188C102.566 58.2319 102.728 58.4668 102.685 58.7112L100.221 72.7476C100.178 72.993 99.9444 73.1558 99.7009 73.112L99.7007 73.113Z" fill="#FDF028"/>
<path d="M94.9829 73.3617C90.3271 83.314 82.0179 91.4621 71.2827 95.6874C71.2666 95.5667 71.2431 95.4449 71.2105 95.3226L70.7866 93.733C70.6657 93.2793 70.444 92.8767 70.1528 92.5481C78.4972 89.2415 85.2503 83.3672 89.736 76.0944L94.9827 73.3607L94.9829 73.3617Z" fill="#FDF028"/>
<path d="M97.6531 43.0906C98.9515 47.9602 99.3919 52.858 99.0622 57.6174L95.8458 54.0818C95.8062 50.7324 95.3513 47.3334 94.4478 43.9452C88.6165 22.0752 66.2501 9.0465 44.4916 14.8481C22.7331 20.6497 9.82156 43.0847 15.6529 64.9548C16.5699 68.3938 17.896 71.6109 19.5612 74.5722L18.564 79.1073L18.5445 79.0833L18.4793 79.136C15.8157 75.1646 13.7531 70.6903 12.4514 65.8084C6.1453 42.1577 20.1053 17.9037 43.6355 11.6297C67.1656 5.35575 91.3478 19.4396 97.654 43.0903L97.6531 43.0906Z" fill="#FDF028"/>
<path d="M41.5763 87.528L38.2473 90.3259C37.5009 90.9533 36.3942 90.8613 35.7529 90.1301L20.5312 71.8717C19.8948 71.1099 19.9938 69.9767 20.7506 69.3394L24.0795 66.5414C24.8363 65.9042 25.9649 66.0065 26.6013 66.7683L41.7964 84.9984C42.4328 85.7602 42.3338 86.8935 41.5763 87.528Z" fill="#FDF028"/>
<path d="M89.6666 75.7168C89.4968 76.6936 88.5691 77.3442 87.5954 77.1683L83.3154 76.3992C82.3425 76.2261 81.6924 75.2926 81.8623 74.3158L85.9667 50.9397C86.1393 49.9622 87.0671 49.3116 88.0407 49.4875L92.3208 50.2566C93.2871 50.4314 93.9339 51.3527 93.7727 52.3242L89.6657 75.7171L89.6666 75.7168Z" fill="#FDF028"/>
<path d="M70.7866 93.7326L71.2104 95.3222C71.2431 95.4446 71.2656 95.5666 71.2827 95.6871C71.4696 97.0576 70.6651 98.3962 69.3259 98.8429L60.6642 101.738C59.0742 102.271 57.363 101.345 56.9288 99.7169L56.2134 97.0337C56.0653 96.4784 56.0856 95.9225 56.2426 95.4129C56.5471 94.4295 57.3605 93.636 58.4455 93.4173L67.3988 91.6157C68.4483 91.4064 69.4861 91.789 70.153 92.5487C70.4442 92.8773 70.6656 93.279 70.7868 93.7335L70.7866 93.7326Z" fill="#FDF028"/>
<path d="M57.7832 67.6236C71.9622 63.843 81.1962 52.3009 78.4079 41.8437C75.6197 31.3865 61.865 25.974 47.686 29.7547C33.507 33.5353 24.273 45.0773 27.0613 55.5346C29.8496 65.9918 43.6043 71.4042 57.7832 67.6236Z" fill="white"/>
<path d="M56.6244 48.5083C56.5648 46.5157 54.9083 44.9448 52.9246 44.9996C50.941 45.0545 49.3812 46.7143 49.4409 48.707C49.5006 50.6996 51.157 52.2705 53.1407 52.2156C55.1244 52.1607 56.6841 50.5009 56.6244 48.5083Z" fill="#FDF028"/>
<path d="M68.3979 45.3691C68.3382 43.3765 66.6818 41.8056 64.6981 41.8605C62.7144 41.9153 61.1547 43.5752 61.2144 45.5678C61.274 47.5604 62.9305 49.1313 64.9141 49.0764C66.8978 49.0216 68.4575 47.3618 68.3979 45.3691Z" fill="#FDF028"/>
<path d="M44.2496 51.8081C44.19 49.8155 42.5335 48.2446 40.5498 48.2994C38.5661 48.3543 37.0064 50.0141 37.0661 52.0068C37.1258 53.9994 38.7822 55.5703 40.7659 55.5154C42.7496 55.4606 44.3093 53.8007 44.2496 51.8081Z" fill="#FDF028"/>
<path d="M75.0832 66.718L57.8721 60.3223L72.3487 56.4623L75.0832 66.718Z" fill="white"/>
</g>
<defs>
<clipPath id="clip0_6002_11862">
<rect width="89.8267" height="91.4599" fill="white" transform="translate(0.291992 23.1865) rotate(-14.9298)"/>
</clipPath>
</defs>
</svg>
