<svg width="51" height="56" viewBox="0 0 51 56" fill="none" xmlns="http://www.w3.org/2000/svg">
<path d="M43.0853 54.9984C40.8561 54.9984 39.9922 55.2047 39.9922 54.5117C39.9922 53.8293 40.6852 54.0249 43.0853 54.0249C43.73 54.0255 43.7294 54.9984 43.0853 54.9984ZM37.8732 54.9984C35.6439 54.9984 34.7806 55.2047 34.7806 54.5117C34.7806 53.8293 35.4736 54.0249 37.8732 54.0249C38.5172 54.0255 38.5166 54.9984 37.8732 54.9984ZM32.661 54.9984C30.4318 54.9984 29.5679 55.2047 29.5679 54.5117C29.5679 53.8293 30.2609 54.0249 32.661 54.0249C33.3057 54.0255 33.3051 54.9984 32.661 54.9984ZM27.4495 54.9984C25.2202 54.9984 24.3563 55.2047 24.3563 54.5117C24.3563 53.8293 25.0493 54.0249 27.4495 54.0249C28.0935 54.0255 28.0929 54.9984 27.4495 54.9984ZM22.2373 54.9984C20.0081 54.9984 19.1442 55.2047 19.1442 54.5117C19.1442 53.8293 19.8372 54.0249 22.2373 54.0249C22.882 54.0255 22.8814 54.9984 22.2373 54.9984ZM17.0251 54.9984C14.7959 54.9984 13.9326 55.2047 13.9326 54.5117C13.9326 53.8293 14.6256 54.0249 17.0251 54.0249C17.6698 54.0255 17.6686 54.9984 17.0251 54.9984ZM11.813 54.9984C9.58374 54.9984 8.71988 55.2047 8.71988 54.5117C8.71988 53.8293 9.41285 54.0249 11.813 54.0249C12.4576 54.0255 12.4571 54.9984 11.813 54.9984ZM6.60143 54.9984C2.14473 54.9984 3.65505 53.5429 4.196 53.7332C5.11351 54.0609 5.7458 54.0249 6.60143 54.0249C7.24551 54.0255 7.24492 54.9984 6.60143 54.9984ZM45.6846 54.903C45.0983 54.903 45.0158 54.0461 45.595 53.9383C47.5662 53.5677 47.9092 52.3915 48.4271 53.0644C49.0571 53.8835 46.2928 54.903 45.6846 54.903ZM0.0975725 50.699C-0.0892283 50.0815 0.842415 49.8004 1.02922 50.4156C1.61024 52.3296 2.81355 52.5547 2.20365 53.1375C1.4812 53.8269 0.358622 51.5588 0.0975725 50.699ZM49.6705 51.8452C48.5685 51.8452 49.7907 50.6584 49.7342 48.864C49.6799 47.9336 51.8379 47.9984 50.1089 51.5706C50.0252 51.7438 49.8514 51.8452 49.6705 51.8452ZM0.0292179 47.8399C0.797046 45.5417 0.847732 44.8505 1.4706 45.0608C2.11762 45.2765 1.71279 45.8723 0.952625 48.1481C0.748146 48.7592 -0.174672 48.4498 0.0292179 47.8399ZM49.5043 46.8257C49.05 46.8257 49.0912 46.6372 48.2173 44.0208C48.0134 43.4103 48.9362 43.1021 49.1401 43.7126C49.7459 45.5252 50.4542 46.8257 49.5043 46.8257ZM2.1412 43.537C0.88191 43.537 2.48002 41.8788 2.48002 39.5541C2.48002 38.9094 3.45351 38.9106 3.45351 39.5541C3.45351 40.6943 3.46176 40.633 3.42817 40.7326C2.54072 43.3908 2.5973 43.537 2.1412 43.537ZM47.0936 38.8334C47.0936 38.1887 48.0671 38.1899 48.0671 38.8334C48.0671 40.8322 48.0028 40.3066 48.3146 41.2406C48.5226 41.8634 47.0936 43.0903 47.0936 38.8334ZM2.96735 37.4344C2.28497 37.4344 2.48061 36.7414 2.48061 34.3413C2.48061 33.6966 3.4541 33.6978 3.4541 34.3413C3.45351 36.5705 3.65975 37.4344 2.96735 37.4344ZM47.5803 36.7143C46.8979 36.7143 47.0936 36.0213 47.0936 33.6218C47.0936 32.9771 48.0671 32.9783 48.0671 33.6218C48.0671 35.8505 48.2733 36.7143 47.5803 36.7143ZM2.96735 32.2223C2.28497 32.2223 2.48061 31.5293 2.48061 29.1297C2.48061 28.4851 3.4541 28.4863 3.4541 29.1297C3.45351 31.359 3.65975 32.2223 2.96735 32.2223ZM47.5803 31.5022C46.8979 31.5022 47.0936 30.8092 47.0936 28.4091C47.0936 27.7644 48.0671 27.7656 48.0671 28.4091C48.0671 30.6383 48.2733 31.5022 47.5803 31.5022ZM2.96735 27.0107C2.28497 27.0107 2.48061 26.3177 2.48061 23.9176C2.48061 23.2729 3.4541 23.2741 3.4541 23.9176C3.45351 26.1468 3.65975 27.0107 2.96735 27.0107ZM47.0936 25.5322C47.0936 24.135 46.5456 23.3319 46.8679 22.9364C47.7436 21.8669 48.0671 24.5711 48.0671 25.8033C48.0671 26.3649 47.0936 26.6424 47.0936 25.5322ZM2.96735 21.7986C2.28497 21.7986 2.48061 21.1056 2.48061 18.7054C2.48061 18.0608 3.4541 18.0619 3.4541 18.7054C3.45351 20.9347 3.65975 21.7986 2.96735 21.7986ZM48.6422 21.5128C48.2845 21.5128 48.0429 21.1327 48.2085 20.8062C49.2621 18.7261 49.0158 17.9282 49.7377 18.1397C50.674 18.4132 49.1955 21.5128 48.6422 21.5128ZM2.96735 16.587C2.31796 16.587 2.48061 15.927 2.48061 14.0649C2.48061 13.5481 2.4977 12.9447 3.05928 13.0118C3.6244 13.0796 3.4541 13.6648 3.4541 14.0649C3.45351 15.6984 3.64619 16.587 2.96735 16.587ZM50.0995 16.5393C49.294 16.5393 49.8225 15.7502 49.6357 13.4903C49.5968 13.0348 51.0329 11.6212 50.5833 16.1014C50.5585 16.3519 50.347 16.5393 50.0995 16.5393ZM3.98209 11.6029C2.09287 11.6029 6.01038 8.13028 6.5042 9.40842C6.81003 10.2039 5.56902 9.87571 4.36631 11.4155C4.26966 11.5387 4.12705 11.6029 3.98209 11.6029ZM49.6652 11.376C49.0335 11.376 49.3382 10.7791 48.3087 8.66888C48.0264 8.09021 48.9027 7.66239 49.1832 8.24224C49.6546 9.20747 50.7383 11.376 49.6652 11.376ZM21.6462 9.75256C19.417 9.75256 18.5532 9.9588 18.5532 9.26581C18.5532 8.58343 19.2461 8.77907 21.6462 8.77907C22.2903 8.77907 22.2897 9.75256 21.6462 9.75256ZM16.4341 9.75256C14.2049 9.75256 13.341 9.9588 13.341 9.26581C13.341 8.58343 14.034 8.77907 16.4341 8.77907C17.0788 8.77907 17.0782 9.75256 16.4341 9.75256ZM11.2225 9.75256C8.99331 9.75256 8.12942 9.9588 8.12942 9.26581C8.12942 8.58343 8.82242 8.77907 11.2225 8.77907C11.8666 8.77907 11.866 9.75256 11.2225 9.75256ZM23.4565 8.59993C22.0216 8.59993 24.4406 4.97057 25.1742 5.54865C25.7653 6.01477 24.9733 6.2717 23.8879 8.33947C23.8012 8.50565 23.6321 8.59993 23.4565 8.59993ZM47.3953 6.71778C46.8985 6.71778 47.0022 6.20629 45.3293 4.64647C44.859 4.20687 45.522 3.49561 45.994 3.93462C47.0028 4.87629 48.7777 6.71778 47.3953 6.71778ZM26.6634 4.5292C24.793 4.5292 28.6233 1.32707 29.1813 2.25695C29.5679 2.90162 28.7376 2.86744 26.9851 4.4084C26.892 4.48972 26.7777 4.5292 26.6634 4.5292ZM43.6039 3.18448C43.6004 3.18448 41.8113 2.24163 41.1095 1.95819C40.5119 1.71718 40.8761 0.81676 41.4737 1.05483C45.0971 2.51741 43.9852 3.18448 43.6039 3.18448ZM30.9374 0.920472C32.4289 0.361838 33.9651 -0.149065 34.0989 0.609334C34.2279 1.35182 33.4613 1.01594 31.2786 1.83208C30.6675 2.06013 30.3405 1.14381 30.9374 0.920472ZM38.8001 1.24752C38.6151 1.24752 37.7412 0.9959 36.2055 0.973507C35.5679 0.964668 35.5673 -0.00528182 36.2197 2.16696e-05C40.7889 0.0677885 38.994 1.24752 38.8001 1.24752Z" fill="#250D0F"/>
<path d="M44.7026 44.2515L45.8611 47.7217H4.6842C6.07431 43.5573 5.47913 44.1295 6.93287 44.6162C6.69127 45.41 7.28587 46.1931 8.09612 46.1931C57.2984 46.1937 39.0903 46.1307 44.7026 44.2515Z" fill="url(#paint0_linear_6002_11359)"/>
<path d="M45.8073 50.1553C45.5056 50.4423 45.1014 50.6179 44.6535 50.6179C-11.4946 50.6179 -5.87815 50.1553 45.8073 50.1553Z" fill="url(#paint1_linear_6002_11359)"/>
<path d="M44.0252 42.2271C44.8631 44.7357 45.0464 44.1364 43.6115 44.6172C43.2267 43.3904 45.2515 43.7604 8.09519 43.7604C7.55011 43.7604 7.08751 44.1205 6.93194 44.6172L5.8418 44.2525C6.80585 41.3662 1.17531 42.2271 44.0252 42.2271Z" fill="url(#paint2_linear_6002_11359)"/>
<path d="M43.7782 24.6751C43.6468 25.5307 43.6857 24.1594 43.6857 39.793H6.85999V14.0645C6.85999 12.7864 7.36737 13.1594 21.9679 13.1594C24.0038 13.1594 23.3114 12.1341 23.3114 14.6391C23.3114 17.0339 23.9732 19.3362 25.2242 21.3462L22.7228 25.8872C22.2714 26.701 22.8724 27.6928 23.7887 27.6928C23.9201 27.6928 23.5124 27.7417 31.8005 26.6268C35.7175 28.0039 40.2431 27.4182 43.7782 24.6751ZM21.5347 33.5384C21.5347 29.47 22.2949 25.8389 17.7333 25.4394C21.3839 23.2956 19.8365 17.7245 15.6455 17.7245C11.4611 17.7245 9.90006 23.2914 13.5577 25.4394C8.99552 25.8389 9.75629 29.4747 9.75629 33.5384C9.75629 35.1483 12.19 35.1489 12.19 33.5384C12.19 29.3457 11.5736 27.8483 14.0397 27.8483C15.7062 27.8483 19.1016 27.5095 19.1016 28.8996C19.1016 33.0505 18.6968 34.7546 20.3185 34.7546C20.9897 34.7552 21.5347 34.2102 21.5347 33.5384Z" fill="url(#paint3_linear_6002_11359)"/>
<path d="M36.0098 4.37842C49.598 4.37842 49.5803 24.9082 36.0098 24.9082C33.2632 24.9082 32.5384 24.0638 31.7705 24.1734L26.0174 24.9471C27.6939 21.9076 28.226 21.4044 27.6379 20.5812C22.8489 13.8316 27.6662 4.37842 36.0098 4.37842ZM43.0481 11.6748C43.0481 10.0084 42.2214 10.458 30.1937 10.458C28.5826 10.458 28.5832 12.8917 30.1937 12.8917C42.1613 12.8917 43.0481 13.3372 43.0481 11.6748ZM43.0481 14.6436C43.0481 12.9771 42.2214 13.4268 30.1937 13.4268C28.5826 13.4268 28.5832 15.8605 30.1937 15.8605C42.1613 15.8605 43.0481 16.306 43.0481 14.6436ZM43.0481 17.613C43.0481 15.9465 42.2214 16.3961 30.1937 16.3961C28.5796 16.3961 28.5855 18.8298 30.1937 18.8298C42.1613 18.8298 43.0481 19.2753 43.0481 17.613Z" fill="url(#paint4_linear_6002_11359)"/>
<path d="M15.6459 20.1582C17.9082 20.1582 17.9052 23.5748 15.6459 23.5748C13.3843 23.5754 13.3872 20.1582 15.6459 20.1582Z" fill="url(#paint5_linear_6002_11359)"/>
<path d="M45.6758 45.2246L46.8343 48.6949H5.65686C7.04696 44.5304 6.45178 45.1026 7.90553 45.5894C7.66393 46.3831 8.2585 47.1663 9.06876 47.1663C58.2716 47.1669 40.0636 47.1038 45.6758 45.2246Z" fill="url(#paint6_linear_6002_11359)"/>
<path d="M46.7808 51.1289C46.4791 51.4159 46.0749 51.5915 45.627 51.5915C-10.521 51.5915 -4.90464 51.1289 46.7808 51.1289Z" fill="url(#paint7_linear_6002_11359)"/>
<path d="M44.9998 43.1998C45.8377 45.7083 46.021 45.109 44.5861 45.5899C44.2013 44.363 46.2261 44.7331 9.06982 44.7331C8.52474 44.7331 8.06214 45.0931 7.90657 45.5899L6.81641 45.2251C7.78046 42.3389 2.14992 43.1998 44.9998 43.1998Z" fill="url(#paint8_linear_6002_11359)"/>
<path d="M39.5739 40.7658H21.9026C4.08939 40.7658 2.99863 14.1322 20.3976 14.1322C23.1277 14.1322 23.1172 14.1847 24.4018 13.9277C24.0046 16.946 24.6669 19.8582 26.1979 22.319C22.1649 29.6402 21.5055 29.1158 32.7736 27.6001C34.1172 28.0721 35.5332 28.3155 36.984 28.3155C46.0477 28.3155 47.271 40.7658 39.5739 40.7658ZM22.5084 34.5112C22.5084 30.4428 23.2686 26.8117 18.707 26.4122C22.3576 24.2684 20.8101 18.6973 16.6192 18.6973C12.4347 18.6973 10.8738 24.2642 14.5314 26.4122C9.96921 26.8117 10.7299 30.4475 10.7299 34.5112C10.7299 36.1211 13.1637 36.1217 13.1637 34.5112C13.1637 30.3185 12.5473 28.8211 15.0134 28.8211C16.6793 28.8211 20.0753 28.4823 20.0753 29.8724C20.0753 34.0233 19.6705 35.7274 21.2921 35.7274C21.9633 35.728 22.5084 35.183 22.5084 34.5112Z" fill="url(#paint9_linear_6002_11359)"/>
<path d="M36.9824 5.35205C50.5706 5.35205 50.5529 25.8819 36.9824 25.8819C34.2358 25.8819 33.511 25.0374 32.7432 25.147L26.9901 25.9208C28.6666 22.8813 29.1987 22.378 28.6106 21.5548C23.8216 14.8052 28.6389 5.35205 36.9824 5.35205ZM44.0208 12.6485C44.0208 10.982 43.194 11.4316 31.1663 11.4316C29.5552 11.4316 29.5558 13.8653 31.1663 13.8653C43.1339 13.8653 44.0208 14.3108 44.0208 12.6485ZM44.0208 15.6173C44.0208 13.9508 43.194 14.4004 31.1663 14.4004C29.5552 14.4004 29.5558 16.8341 31.1663 16.8341C43.1339 16.8341 44.0208 17.2796 44.0208 15.6173ZM44.0208 18.5866C44.0208 16.9201 43.194 17.3698 31.1663 17.3698C29.5523 17.3698 29.5582 19.8035 31.1663 19.8035C43.1339 19.8035 44.0208 20.249 44.0208 18.5866Z" fill="url(#paint10_linear_6002_11359)"/>
<path d="M16.6188 21.1318C18.881 21.1318 18.8781 24.5485 16.6188 24.5485C14.3566 24.5491 14.3601 21.1318 16.6188 21.1318Z" fill="url(#paint11_linear_6002_11359)"/>
<path d="M48.7565 48.8848C48.7565 51.3397 46.816 53.0509 44.6534 53.0509H5.89072C3.19595 53.0509 1.37626 50.4133 1.8412 48.5536C5.2867 38.2371 4.42576 45.1688 4.42576 14.0644C4.42576 9.6177 8.90841 10.7255 21.9674 10.7255C22.2691 10.7255 23.0623 10.8328 23.8413 11.0178C25.4088 5.77561 30.2662 1.94531 36.0092 1.94531C46.8814 1.94531 52.6528 14.7438 45.6463 22.8941C46.2739 25.0532 46.1183 24.461 46.1183 40.8152C48.7464 48.6832 48.7565 48.6361 48.7565 48.8848ZM45.8608 47.7215C44.4583 43.5206 44.8779 44.7757 44.0258 42.2265C1.0227 42.2265 6.79231 41.4068 5.8418 44.2513L4.68328 47.7215H45.8608ZM4.73691 50.1552C5.03862 50.4422 5.44287 50.6178 5.89072 50.6178C62.0388 50.6178 56.4224 50.1552 4.73691 50.1552ZM43.7777 24.6749C40.2455 27.4162 35.7199 28.0043 31.7995 26.6266C20.437 28.1552 21.2131 28.626 25.2237 21.3455C23.6969 18.8917 23.0298 15.9801 23.4276 12.9542C21.9821 13.2435 23.1636 13.1587 7.76461 13.1587C6.46703 13.1587 6.85948 12.4285 6.85948 39.7922H43.6852C43.6852 24.1811 43.6457 25.5329 43.7777 24.6749ZM46.2744 14.6389C46.2744 1.06375 25.7441 1.06906 25.7441 14.6389C25.7441 18.7874 27.8613 20.3284 27.8613 21.2877C27.8613 21.7085 27.8937 21.5447 26.0169 24.9477C32.2938 24.1033 31.9739 24.0903 32.3687 24.2418C39.0429 26.7939 46.2744 21.8216 46.2744 14.6389Z" fill="#250D0F"/>
<path d="M43.6126 44.6168C43.8542 45.4105 43.2596 46.1937 42.4493 46.1937C5.99962 46.1937 6.87943 46.7164 6.87943 44.9768C6.87943 44.3003 7.4304 43.76 8.09629 43.76C45.2643 43.76 43.229 43.3952 43.6126 44.6168Z" fill="#250D0F"/>
<path d="M41.8318 10.4581C43.4417 10.4581 43.4423 12.8918 41.8318 12.8918C29.8977 12.8918 28.9773 13.339 28.9773 11.6749C28.9773 10.0084 29.804 10.4581 41.8318 10.4581Z" fill="#250D0F"/>
<path d="M41.8318 13.4268C43.4417 13.4268 43.4423 15.8605 41.8318 15.8605C29.8977 15.8605 28.9773 16.3078 28.9773 14.6437C28.9773 12.9772 29.804 13.4268 41.8318 13.4268Z" fill="#250D0F"/>
<path d="M41.8318 16.3961C43.4452 16.3961 43.4387 18.8298 41.8318 18.8298C29.8977 18.8298 28.9773 19.277 28.9773 17.6129C28.9773 15.9464 29.804 16.3961 41.8318 16.3961Z" fill="#250D0F"/>
<path d="M21.5344 28.9001C21.5344 33.051 21.9392 34.7552 20.3176 34.7552C18.6965 34.7552 19.1007 33.0392 19.1007 28.9001C19.1007 27.5118 15.7713 27.8489 14.0388 27.8489C11.565 27.8489 12.1891 29.3568 12.1891 33.5389C12.1891 35.1488 9.75539 35.1494 9.75539 33.5389C9.75539 29.4706 8.99521 25.8394 13.5568 25.4399C9.90624 23.2961 11.4537 17.7251 15.6446 17.7251C19.8291 17.7251 21.3901 23.292 17.7324 25.4399C19.8986 25.6291 21.5344 27.0799 21.5344 28.9001ZM17.3535 21.8671C17.3535 19.6049 13.9369 19.6078 13.9369 21.8671C13.9363 24.1294 17.3535 24.1258 17.3535 21.8671Z" fill="#250D0F"/>
<defs>
<linearGradient id="paint0_linear_6002_11359" x1="2.54964" y1="46.5184" x2="9.85444" y2="26.7016" gradientUnits="userSpaceOnUse">
<stop stop-color="#E7AA39"/>
<stop offset="0.2327" stop-color="#F7FC97"/>
<stop offset="0.4456" stop-color="#E7AA39"/>
<stop offset="1" stop-color="#632507"/>
</linearGradient>
<linearGradient id="paint1_linear_6002_11359" x1="2.62485" y1="50.4575" x2="2.77236" y2="47.4642" gradientUnits="userSpaceOnUse">
<stop stop-color="#E7AA39"/>
<stop offset="0.2327" stop-color="#F7FC97"/>
<stop offset="0.4456" stop-color="#E7AA39"/>
<stop offset="1" stop-color="#632507"/>
</linearGradient>
<linearGradient id="paint2_linear_6002_11359" x1="3.82884" y1="43.7468" x2="8.09211" y2="28.6694" gradientUnits="userSpaceOnUse">
<stop stop-color="#E7AA39"/>
<stop offset="0.2327" stop-color="#F7FC97"/>
<stop offset="0.4456" stop-color="#E7AA39"/>
<stop offset="1" stop-color="#632507"/>
</linearGradient>
<linearGradient id="paint3_linear_6002_11359" x1="4.94619" y1="30.4856" x2="54.7684" y2="14.8184" gradientUnits="userSpaceOnUse">
<stop stop-color="#E7AA39"/>
<stop offset="0.2327" stop-color="#F7FC97"/>
<stop offset="0.4456" stop-color="#E7AA39"/>
<stop offset="1" stop-color="#632507"/>
</linearGradient>
<linearGradient id="paint4_linear_6002_11359" x1="24.6795" y1="17.8148" x2="53.5221" y2="11.2572" gradientUnits="userSpaceOnUse">
<stop stop-color="#E7AA39"/>
<stop offset="0.2327" stop-color="#F7FC97"/>
<stop offset="0.4456" stop-color="#E7AA39"/>
<stop offset="1" stop-color="#632507"/>
</linearGradient>
<linearGradient id="paint5_linear_6002_11359" x1="13.775" y1="22.3901" x2="18.5572" y2="21.3051" gradientUnits="userSpaceOnUse">
<stop stop-color="#E7AA39"/>
<stop offset="0.2327" stop-color="#F7FC97"/>
<stop offset="0.4456" stop-color="#E7AA39"/>
<stop offset="1" stop-color="#632507"/>
</linearGradient>
<linearGradient id="paint6_linear_6002_11359" x1="3.52227" y1="47.4915" x2="10.827" y2="27.6747" gradientUnits="userSpaceOnUse">
<stop stop-color="#E7AA39"/>
<stop offset="0.2327" stop-color="#F7FC97"/>
<stop offset="0.4456" stop-color="#E7AA39"/>
<stop offset="1" stop-color="#632507"/>
</linearGradient>
<linearGradient id="paint7_linear_6002_11359" x1="3.59836" y1="51.4311" x2="3.74587" y2="48.4379" gradientUnits="userSpaceOnUse">
<stop stop-color="#E7AA39"/>
<stop offset="0.2327" stop-color="#F7FC97"/>
<stop offset="0.4456" stop-color="#E7AA39"/>
<stop offset="1" stop-color="#632507"/>
</linearGradient>
<linearGradient id="paint8_linear_6002_11359" x1="4.80345" y1="44.7194" x2="9.06672" y2="29.642" gradientUnits="userSpaceOnUse">
<stop stop-color="#E7AA39"/>
<stop offset="0.2327" stop-color="#F7FC97"/>
<stop offset="0.4456" stop-color="#E7AA39"/>
<stop offset="1" stop-color="#632507"/>
</linearGradient>
<linearGradient id="paint9_linear_6002_11359" x1="6.02421" y1="31.4596" x2="55.6232" y2="15.9453" gradientUnits="userSpaceOnUse">
<stop stop-color="#E7AA39"/>
<stop offset="0.2327" stop-color="#F7FC97"/>
<stop offset="0.4456" stop-color="#E7AA39"/>
<stop offset="1" stop-color="#632507"/>
</linearGradient>
<linearGradient id="paint10_linear_6002_11359" x1="25.6522" y1="18.7885" x2="54.4948" y2="12.2309" gradientUnits="userSpaceOnUse">
<stop stop-color="#E7AA39"/>
<stop offset="0.2327" stop-color="#F7FC97"/>
<stop offset="0.4456" stop-color="#E7AA39"/>
<stop offset="1" stop-color="#632507"/>
</linearGradient>
<linearGradient id="paint11_linear_6002_11359" x1="14.7477" y1="23.3637" x2="19.5301" y2="22.2786" gradientUnits="userSpaceOnUse">
<stop stop-color="#E7AA39"/>
<stop offset="0.2327" stop-color="#F7FC97"/>
<stop offset="0.4456" stop-color="#E7AA39"/>
<stop offset="1" stop-color="#632507"/>
</linearGradient>
</defs>
</svg>
