<svg width="342" height="199" viewBox="0 0 342 199" fill="none" xmlns="http://www.w3.org/2000/svg">
<path d="M295.775 72.4956C301.391 71.2017 306.758 73.7898 308.028 78.3157L303.686 62.8347C302.417 58.3135 297.048 55.7215 291.43 57.0172C285.589 58.3633 281.677 63.3739 282.681 68.2047C282.713 68.3768 282.753 68.5459 282.799 68.7107C284.248 73.8685 285.696 79.0268 287.143 84.1868C287.097 84.0205 287.054 83.8549 287.019 83.684C286.02 78.8522 289.931 73.8425 295.775 72.4956Z" fill="url(#paint0_linear_6002_10629)"/>
<path d="M319.993 68.817L301.216 101.676C295.84 111.094 281.815 121.025 270.055 123.735L52.7976 173.779C50.6698 174.264 48.5573 174.479 46.515 174.443C41.7488 174.354 37.351 172.907 33.9821 170.436C31.0957 168.313 28.9662 165.443 28.01 162.029C28.0095 162.034 28.0095 162.034 28.0103 162.041C28.0095 162.034 28.0075 162.031 28.0078 162.026L32.3508 177.505C34.9062 186.613 45.792 191.869 57.1394 189.255L274.399 139.213C286.154 136.502 300.182 126.575 305.557 117.155L324.333 84.2984C327.295 79.1208 327.825 72.9109 326.262 67.3484C324.814 62.187 323.366 57.0283 321.923 51.87C323.48 57.4362 322.955 63.6428 319.993 68.817Z" fill="url(#paint1_linear_6002_10629)"/>
<path d="M315.798 47.1124C324.404 53.3107 327.05 66.0976 321.671 75.4983L302.89 108.355C297.516 117.772 283.491 127.703 271.729 130.413L54.4742 180.456C42.7196 183.165 31.4532 177.424 29.4413 167.699L13.7385 91.8012C11.7274 82.0776 19.7049 71.9226 31.4603 69.2158L248.717 19.1709C260.473 16.4656 277.143 19.3054 285.753 25.5228L315.798 47.1124ZM295.437 75.8371C301.254 74.4951 305.189 69.4807 304.189 64.6676C303.193 59.831 297.64 57.0013 291.815 58.3445C285.974 59.6883 282.062 64.6989 283.063 69.5322C284.056 74.348 289.591 77.1851 295.437 75.8371Z" fill="url(#paint2_linear_6002_10629)"/>
<path d="M315.416 45.7866C324.019 51.9843 326.667 64.7726 321.289 74.1698L302.512 107.029C297.137 116.447 283.111 126.378 271.352 129.088L54.0942 179.132C42.3383 181.839 31.0731 176.095 29.0633 166.373L13.3577 90.4751C11.3446 80.7532 19.3226 70.5977 31.078 67.8909L248.334 17.8493C260.09 15.1408 276.763 17.9789 285.371 24.1984L315.416 45.7866ZM295.054 74.5103C300.877 73.1715 304.802 68.1564 303.812 63.3399C302.808 58.5097 297.258 55.6746 291.431 57.0172C285.591 58.3633 281.679 63.374 282.683 68.2047C283.675 73.0233 289.209 75.8575 295.054 74.5103Z" fill="url(#paint3_linear_6002_10629)"/>
<defs>
<linearGradient id="paint0_linear_6002_10629" x1="320.771" y1="79.1466" x2="288.709" y2="69.5771" gradientUnits="userSpaceOnUse">
<stop stop-color="#1B2338"/>
<stop offset="1" stop-color="#121624"/>
</linearGradient>
<linearGradient id="paint1_linear_6002_10629" x1="353.649" y1="58.7028" x2="60.7265" y2="192.373" gradientUnits="userSpaceOnUse">
<stop stop-color="#1B2338"/>
<stop offset="1" stop-color="#121624"/>
</linearGradient>
<linearGradient id="paint2_linear_6002_10629" x1="71.4848" y1="205.473" x2="242.608" y2="-10.8181" gradientUnits="userSpaceOnUse">
<stop stop-color="#1B2336"/>
<stop offset="0.6882" stop-color="#2E3B5C"/>
<stop offset="0.9946" stop-color="#0E121C"/>
</linearGradient>
<linearGradient id="paint3_linear_6002_10629" x1="303.625" y1="14.352" x2="-48.727" y2="209.715" gradientUnits="userSpaceOnUse">
<stop stop-color="#222C45"/>
<stop offset="1" stop-color="#191E30"/>
</linearGradient>
</defs>
</svg>
