<svg width="155" height="182" viewBox="0 0 155 182" fill="none" xmlns="http://www.w3.org/2000/svg">
<path d="M34.0803 24.6393C32.0343 25.8267 29.9924 27.0081 27.9458 28.1906C28.0973 28.102 28.2459 28.0055 28.3914 27.9067C31.1322 25.9555 31.6653 21.8968 29.572 18.8553C27.5984 15.9839 23.9633 15.0416 21.2578 16.6099L27.3917 13.0604C30.0984 11.4957 33.7335 12.4344 35.7071 15.3093C37.8022 18.349 37.2638 22.4066 34.5259 24.3542C34.3786 24.4578 34.2319 24.5543 34.0803 24.6393Z" fill="url(#paint0_linear_6002_10579)"/>
<path d="M99.5134 179.938C100.024 179.641 100.534 179.345 101.046 179.051C102.576 178.164 104.11 177.275 105.644 176.389C100.177 179.551 92.8159 177.636 88.8262 171.839L11.0395 58.7475C6.82941 52.6268 4.95886 42.0561 6.89889 35.2524L13.6587 11.5237C14.7752 7.60755 17.6646 4.22875 21.2373 2.15955C19.1973 3.34272 17.1507 4.52468 15.1046 5.70905C11.5312 7.77466 8.64425 11.1534 7.526 15.0696L0.767951 38.8025C-1.17208 45.6002 0.693079 56.1745 4.90495 62.2976L82.6959 175.385C86.6849 181.183 94.0449 183.099 99.5134 179.938Z" fill="url(#paint1_linear_6002_10579)"/>
<path d="M151.062 127.453C155.267 133.575 154.186 141.803 148.653 145.739L105.458 176.465C99.9244 180.399 91.9571 178.605 87.7506 172.482L9.96027 59.3919C5.75079 53.2724 3.88144 42.6981 5.82267 35.8968L12.5795 12.1675C14.5219 5.3698 21.7981 0.190222 28.7334 0.67667L52.9757 2.36306C59.9236 2.83873 69.0583 8.24238 73.2684 14.3631L151.062 127.453ZM24.6701 23.0329C26.7647 26.0768 30.695 26.958 33.4454 25.0021C36.1863 23.0527 36.7211 18.9975 34.6278 15.9536C32.5434 12.9223 28.6112 12.0411 25.8692 13.9905C23.1188 15.9465 22.5863 20.0052 24.6701 23.0329Z" fill="url(#paint2_linear_6002_10579)"/>
<path d="M152.138 126.81C156.348 132.929 155.265 141.158 149.732 145.092L106.534 175.82C101.002 179.753 93.0378 177.959 88.8272 171.838L11.0404 58.7469C6.83036 52.6261 4.95981 42.0555 6.89984 35.2518L13.6597 11.523C15.5997 4.72115 22.8783 -0.454251 29.8142 0.031598L54.0552 1.7162C61.0031 2.19187 70.1373 7.59731 74.3479 13.718L152.138 126.81ZM25.7515 22.3867C27.8436 25.4306 31.7752 26.3136 34.5256 24.3534C37.2634 22.4058 37.8019 18.3489 35.7067 15.3086C33.6188 12.2773 29.6896 11.3924 26.9482 13.3454C24.2013 15.3002 23.6647 19.3566 25.7515 22.3867Z" fill="url(#paint3_linear_6002_10579)"/>
<g opacity="0.7">
<path d="M79.1345 119.451L117.962 120.401L121.549 125.939L82.721 124.989L79.1345 119.451ZM93.0744 113.918C92.2276 112.61 91.7587 111.24 91.6677 109.806C91.5766 108.373 91.8915 107.005 92.6121 105.701C93.3584 104.381 94.5136 103.214 96.0777 102.201C97.6417 101.189 99.166 100.62 100.65 100.496C102.135 100.372 103.512 100.644 104.783 101.313C106.079 101.966 107.15 102.946 107.997 104.254C108.861 105.587 109.317 106.966 109.366 108.39C109.457 109.823 109.142 111.192 108.421 112.496C107.717 113.825 106.583 114.996 105.019 116.009C103.48 117.005 101.948 117.561 100.421 117.676C98.9112 117.817 97.5209 117.553 96.2504 116.883C94.9965 116.239 93.9378 115.251 93.0744 113.918ZM96.7531 111.59C97.1682 112.231 97.8035 112.566 98.6589 112.594C99.5309 112.648 100.646 112.235 102.005 111.355C103.364 110.475 104.197 109.626 104.505 108.808C104.829 108.016 104.783 107.3 104.368 106.659C103.953 106.018 103.301 105.657 102.413 105.578C101.541 105.524 100.425 105.937 99.0664 106.817C97.7074 107.697 96.8742 108.546 96.5668 109.363C96.2759 110.207 96.338 110.949 96.7531 111.59ZM92.6859 141.136C91.8225 139.803 91.3453 138.42 91.2542 136.987C91.1798 135.579 91.5029 134.223 92.2236 132.92C92.9699 131.599 94.1251 130.433 95.6891 129.42C97.2532 128.407 98.7775 127.839 100.262 127.714C101.746 127.59 103.115 127.85 104.369 128.494C105.666 129.146 106.745 130.139 107.609 131.473C108.472 132.806 108.928 134.185 108.977 135.609C109.068 137.042 108.753 138.41 108.033 139.714C107.329 141.044 106.194 142.215 104.63 143.227C103.066 144.24 101.521 144.804 99.9942 144.92C98.5098 145.044 97.1323 144.771 95.8618 144.102C94.6079 143.458 93.5493 142.47 92.6859 141.136ZM96.3397 138.77C96.7548 139.411 97.3983 139.759 98.2703 139.813C99.1423 139.867 100.258 139.454 101.617 138.574C102.976 137.694 103.809 136.845 104.116 136.027C104.424 135.209 104.37 134.48 103.955 133.839C103.556 133.223 102.913 132.876 102.024 132.796C101.152 132.742 100.037 133.155 98.6778 134.035C97.3189 134.915 96.4857 135.764 96.1782 136.582C95.8874 137.425 95.9412 138.155 96.3397 138.77Z" fill="black"/>
<path d="M66.1771 100.625C64.6827 98.3171 63.9057 95.9088 63.846 93.4C63.8028 90.9168 64.4876 88.49 65.9004 86.1194C67.3131 83.7489 69.5066 81.6006 72.4809 79.6745C75.4552 77.7485 78.3129 76.6258 81.0539 76.3065C83.795 75.9872 86.2896 76.3552 88.5378 77.4104C90.8026 78.4913 92.6822 80.1855 94.1766 82.4932C95.6543 84.7752 96.4148 87.1578 96.4579 89.6409C96.5177 92.1497 95.8412 94.5894 94.4284 96.96C93.0157 99.3305 90.8222 101.479 87.8479 103.405C84.8736 105.331 82.0159 106.454 79.2749 106.773C76.5338 107.092 74.0309 106.711 71.7661 105.631C69.5178 104.575 67.6549 102.907 66.1771 100.625ZM72.4078 96.5899C72.9391 97.4104 73.6604 97.9623 74.5717 98.2456C75.4996 98.5546 76.6439 98.5232 78.0045 98.1516C79.3908 97.7634 81.0198 96.9633 82.8916 95.7512C84.789 94.5225 86.1856 93.3634 87.0813 92.2738C87.977 91.1843 88.4737 90.153 88.5715 89.1799C88.6858 88.2324 88.4773 87.3484 87.9459 86.5279C87.4146 85.7074 86.685 85.1427 85.7571 84.8338C84.8458 84.5505 83.7015 84.5818 82.3243 84.9278C80.9636 85.2994 79.3346 86.0995 77.4372 87.3282C75.5654 88.5403 74.1689 89.6995 73.2475 90.8056C72.3684 91.9208 71.8716 92.9521 71.7573 93.8996C71.6596 94.8726 71.8764 95.7694 72.4078 96.5899Z" fill="black"/>
<path d="M76.1836 54.7072C77.8274 57.2456 78.7471 59.7617 78.9426 62.2554C79.1547 64.7747 78.6056 67.1864 77.2955 69.4905C76.0275 71.8037 73.9321 73.9067 71.0091 75.7995C67.8809 77.8252 64.8158 78.9367 61.8137 79.1339C58.8539 79.3401 56.0997 78.7399 53.5511 77.3333C51.0192 75.9523 48.8317 73.8387 46.9886 70.9926C46.0256 69.5055 45.2753 67.9534 44.7376 66.3363C44.1743 64.7359 43.8766 63.2364 43.8444 61.838L51.0991 61.0705C51.0587 62.1884 51.2017 63.224 51.5279 64.1773C51.8963 65.1397 52.3628 66.0568 52.9274 66.9286C54.2723 69.0054 55.9714 70.2525 58.0248 70.6696C60.0782 71.0868 62.31 70.515 64.7202 68.9542C65.1561 68.6719 65.6048 68.3813 66.0663 68.0825C66.5535 67.767 67.0158 67.4131 67.4531 67.0207L67.0966 69.9264C65.849 70.0792 64.664 69.9914 63.5415 69.6629C62.4189 69.3344 61.3672 68.7781 60.3863 67.994C59.4055 67.2099 58.4999 66.1768 57.6697 64.8948C56.5739 63.2025 55.9155 61.4271 55.6945 59.5685C55.5159 57.719 55.7808 55.9644 56.4892 54.3047C57.2233 52.6283 58.4493 51.2339 60.1672 50.1215C62.039 48.9094 63.9615 48.3377 65.9348 48.4064C67.9338 48.4585 69.8197 49.0386 71.5928 50.1468C73.3914 51.2384 74.9217 52.7585 76.1836 54.7072ZM71.0844 58.7189C70.6195 58.001 70.0717 57.4641 69.4409 57.1083C68.8102 56.7525 68.1305 56.574 67.4019 56.5727C66.7154 56.5805 66.0133 56.8169 65.2953 57.2818C64.2697 57.946 63.6651 58.8106 63.4814 59.8758C63.3143 60.9666 63.5878 62.0632 64.3017 63.1658C64.7833 63.9093 65.3477 64.4719 65.995 64.8533C66.6424 65.2348 67.322 65.4133 68.0341 65.3889C68.7462 65.3645 69.4483 65.1281 70.1406 64.6798C70.8073 64.2481 71.2846 63.7207 71.5725 63.0975C71.8861 62.4578 72.0012 61.7645 71.918 61.0178C71.8604 60.2544 71.5825 59.4882 71.0844 58.7189Z" fill="black"/>
</g>
<defs>
<linearGradient id="paint0_linear_6002_10579" x1="-41.7823" y1="-9.79752" x2="40.0593" y2="24.5847" gradientUnits="userSpaceOnUse">
<stop stop-color="#E7AA39"/>
<stop offset="0.2327" stop-color="#F7FC97"/>
<stop offset="0.4456" stop-color="#E7AA39"/>
<stop offset="1" stop-color="#632507"/>
</linearGradient>
<linearGradient id="paint1_linear_6002_10579" x1="-2.95366" y1="-74.1792" x2="70.4952" y2="172.378" gradientUnits="userSpaceOnUse">
<stop stop-color="#E7AA39"/>
<stop offset="0.2327" stop-color="#F7FC97"/>
<stop offset="0.4456" stop-color="#E7AA39"/>
<stop offset="1" stop-color="#632507"/>
</linearGradient>
<linearGradient id="paint2_linear_6002_10579" x1="104.21" y1="58.9547" x2="26.6862" y2="118.546" gradientUnits="userSpaceOnUse">
<stop stop-color="#E7AA39"/>
<stop offset="0.2327" stop-color="#F7FC97"/>
<stop offset="0.4456" stop-color="#E7AA39"/>
<stop offset="1" stop-color="#632507"/>
</linearGradient>
<linearGradient id="paint3_linear_6002_10579" x1="17.2635" y1="98.7835" x2="181.526" y2="64.4781" gradientUnits="userSpaceOnUse">
<stop stop-color="#E7AA39"/>
<stop offset="0.2327" stop-color="#F7FC97"/>
<stop offset="0.4456" stop-color="#E7AA39"/>
<stop offset="1" stop-color="#632507"/>
</linearGradient>
</defs>
</svg>
